<svg id="svg" version="1.1" xmlns="http://www.w3.org/2000/svg" xmlns:xlink="http://www.w3.org/1999/xlink" width="400" height="292.74447949526814" viewBox="0, 0, 400,292.74447949526814"><g id="svgg"><path id="path0" d="M251.230 22.446 C 250.073 22.850,245.258 23.147,238.047 23.260 C 237.059 23.276,236.581 23.418,236.154 23.823 C 235.647 24.305,235.246 24.375,232.555 24.446 C 230.760 24.494,229.379 24.645,229.163 24.818 C 228.870 25.053,228.840 25.036,229.011 24.732 C 229.177 24.435,229.153 24.417,228.902 24.649 C 228.726 24.812,228.421 24.883,228.225 24.808 C 228.028 24.732,227.673 24.841,227.435 25.050 C 227.198 25.258,226.208 25.564,225.237 25.730 C 224.265 25.895,223.270 26.211,223.025 26.433 C 222.755 26.677,221.963 26.878,221.015 26.942 C 219.833 27.023,219.274 27.197,218.728 27.657 C 218.159 28.136,217.715 28.265,216.635 28.265 C 215.522 28.265,215.073 28.403,214.253 28.997 C 213.654 29.431,213.047 29.679,212.764 29.605 C 212.480 29.531,212.065 29.702,211.740 30.026 C 211.413 30.354,210.678 30.654,209.906 30.776 C 209.198 30.888,208.484 31.164,208.318 31.390 C 208.153 31.616,207.503 31.897,206.872 32.015 C 206.242 32.132,205.416 32.473,205.037 32.771 C 204.658 33.069,204.125 33.312,203.851 33.312 C 203.577 33.312,203.016 33.596,202.604 33.943 C 202.191 34.290,201.641 34.574,201.382 34.574 C 201.122 34.574,200.603 34.858,200.229 35.205 C 199.854 35.552,199.422 35.845,199.269 35.855 C 198.505 35.908,198.132 36.087,197.530 36.689 C 197.138 37.080,196.716 37.285,196.483 37.195 C 196.255 37.108,196.030 37.209,195.942 37.439 C 195.859 37.655,195.397 38.064,194.915 38.348 C 194.434 38.632,194.110 38.979,194.197 39.119 C 194.370 39.399,194.028 39.566,193.036 39.684 C 192.423 39.758,191.625 40.301,189.964 41.777 C 189.580 42.118,189.135 42.397,188.976 42.397 C 188.816 42.397,188.756 42.468,188.842 42.554 C 189.056 42.768,188.384 43.407,187.945 43.407 C 187.749 43.407,187.460 43.691,187.301 44.038 C 187.143 44.385,186.858 44.669,186.667 44.669 C 186.476 44.669,186.024 44.924,185.662 45.237 C 185.300 45.549,184.586 46.145,184.075 46.562 C 182.565 47.794,181.270 49.378,181.406 49.827 C 181.499 50.136,180.364 49.096,177.773 46.498 C 176.769 45.492,175.764 44.669,175.539 44.669 C 175.315 44.669,175.002 44.385,174.844 44.038 C 174.686 43.691,174.478 43.407,174.382 43.407 C 174.286 43.407,173.846 43.062,173.405 42.640 C 172.963 42.218,172.489 41.943,172.352 42.028 C 172.214 42.113,172.132 42.033,172.170 41.851 C 172.209 41.668,171.747 41.281,171.145 40.991 C 170.543 40.701,169.951 40.302,169.829 40.105 C 169.708 39.909,169.491 39.733,169.347 39.716 C 169.203 39.699,168.971 39.670,168.831 39.653 C 168.691 39.636,168.337 39.346,168.045 39.009 C 167.752 38.672,167.189 38.262,166.793 38.099 C 166.398 37.935,166.099 37.671,166.129 37.513 C 166.159 37.352,165.791 37.189,165.300 37.144 C 164.767 37.096,164.187 36.821,163.838 36.450 C 163.494 36.085,162.976 35.836,162.557 35.836 C 162.134 35.836,161.619 35.585,161.262 35.205 C 160.936 34.858,160.477 34.574,160.242 34.574 C 160.008 34.574,159.501 34.326,159.115 34.023 C 158.730 33.720,158.078 33.457,157.665 33.437 C 157.206 33.416,156.745 33.176,156.475 32.818 C 156.150 32.387,155.711 32.204,154.799 32.120 C 154.086 32.054,153.192 31.756,152.681 31.415 C 152.196 31.090,151.344 30.746,150.789 30.652 C 150.233 30.557,149.524 30.320,149.213 30.125 C 148.902 29.929,148.295 29.729,147.865 29.679 C 147.435 29.629,146.725 29.319,146.286 28.991 C 145.627 28.497,145.118 28.378,143.344 28.301 C 141.823 28.236,141.015 28.080,140.568 27.765 C 139.576 27.068,139.470 27.049,134.585 26.689 C 134.418 26.677,134.333 26.583,134.396 26.481 C 134.610 26.134,132.928 25.741,131.227 25.741 C 129.914 25.741,129.387 25.628,128.890 25.237 C 128.207 24.699,127.037 24.529,127.335 25.010 C 127.429 25.164,127.237 25.120,126.908 24.912 C 126.105 24.408,130.164 24.451,70.058 24.307 C 16.328 24.178,14.196 24.200,13.502 24.894 C 13.167 25.229,13.131 38.319,13.186 139.632 L 13.249 253.991 13.790 254.261 C 14.088 254.409,14.503 254.673,14.713 254.848 C 15.399 255.417,86.529 255.267,86.998 254.695 C 87.219 254.426,87.284 254.404,87.168 254.637 C 87.042 254.890,87.161 254.857,87.528 254.535 C 87.829 254.271,88.076 253.930,88.077 253.778 C 88.078 253.626,88.244 253.186,88.445 252.799 C 88.690 252.330,88.711 252.158,88.507 252.280 C 88.288 252.411,88.292 252.352,88.521 252.069 C 88.775 251.755,88.838 244.985,88.829 219.038 C 88.818 188.005,88.840 186.388,89.267 186.146 C 89.514 186.006,90.880 185.913,92.303 185.941 C 93.995 185.973,94.890 185.897,94.890 185.722 C 94.890 185.574,95.068 185.631,95.286 185.849 C 95.656 186.219,96.012 186.348,96.467 186.276 C 96.571 186.260,96.656 186.418,96.656 186.627 C 96.656 186.837,96.883 187.203,97.161 187.440 C 97.438 187.678,97.666 188.173,97.666 188.539 C 97.666 188.906,97.872 189.477,98.124 189.808 C 98.377 190.139,98.740 190.808,98.932 191.293 C 99.124 191.779,99.485 192.325,99.735 192.506 C 99.995 192.695,100.189 193.154,100.189 193.581 C 100.189 194.060,100.414 194.520,100.820 194.874 C 101.167 195.175,101.451 195.626,101.451 195.874 C 101.451 196.122,101.798 197.007,102.221 197.841 C 102.645 198.674,102.979 199.423,102.965 199.505 C 102.951 199.587,103.224 199.878,103.572 200.152 C 103.943 200.444,104.145 200.803,104.061 201.022 C 103.983 201.227,104.058 201.563,104.230 201.770 C 104.401 201.976,104.445 202.145,104.328 202.145 C 104.211 202.145,104.367 202.322,104.676 202.538 C 104.984 202.754,105.238 203.180,105.240 203.484 C 105.246 204.431,105.533 205.174,105.892 205.174 C 106.082 205.174,106.310 205.486,106.401 205.868 C 106.491 206.249,106.816 206.902,107.122 207.319 C 107.429 207.735,107.756 208.385,107.849 208.763 C 107.943 209.141,108.231 209.652,108.491 209.898 C 108.751 210.145,109.040 210.704,109.133 211.141 C 109.227 211.578,109.524 212.135,109.793 212.379 C 110.063 212.623,110.284 213.096,110.284 213.429 C 110.284 213.765,110.395 213.967,110.533 213.882 C 110.678 213.792,110.718 213.898,110.627 214.134 C 110.534 214.377,110.685 214.738,111.007 215.038 C 111.301 215.313,111.614 215.984,111.701 216.531 C 111.798 217.134,112.025 217.577,112.278 217.658 C 112.643 217.774,113.304 218.946,113.421 219.685 C 113.443 219.823,113.584 219.913,113.734 219.884 C 113.884 219.855,114.066 220.360,114.138 221.005 C 114.211 221.650,114.434 222.298,114.633 222.445 C 115.172 222.842,115.584 223.727,115.584 224.487 C 115.584 224.939,115.743 225.199,116.074 225.286 C 116.373 225.364,116.630 225.723,116.732 226.209 C 116.824 226.646,117.143 227.268,117.440 227.592 C 117.738 227.915,117.994 228.483,118.010 228.853 C 118.058 230.006,118.095 230.096,118.561 230.218 C 118.830 230.288,119.144 230.767,119.332 231.396 C 119.507 231.979,119.814 232.519,120.014 232.596 C 120.215 232.672,120.379 232.900,120.379 233.102 C 120.379 233.303,120.491 233.399,120.628 233.314 C 120.771 233.226,120.813 233.327,120.727 233.552 C 120.645 233.767,120.684 233.943,120.816 233.943 C 121.110 233.943,121.640 235.064,121.640 235.686 C 121.640 235.938,121.918 236.553,122.257 237.052 C 122.595 237.551,122.982 238.355,123.115 238.838 C 123.248 239.321,123.484 239.865,123.638 240.047 C 124.324 240.857,125.137 242.282,125.428 243.183 C 125.815 244.383,126.156 244.841,126.503 244.627 C 126.647 244.538,126.696 244.577,126.611 244.714 C 126.389 245.074,126.958 246.797,127.628 247.795 C 127.944 248.266,128.202 248.791,128.202 248.963 C 128.202 249.135,128.372 249.417,128.579 249.589 C 128.787 249.761,129.089 250.343,129.250 250.882 C 129.412 251.420,129.696 251.861,129.882 251.861 C 130.068 251.861,130.221 252.082,130.221 252.351 C 130.221 252.620,130.334 252.911,130.473 252.997 C 130.612 253.083,130.726 253.417,130.726 253.741 C 130.726 254.287,131.311 254.572,132.787 254.744 C 132.879 254.755,133.041 254.850,133.147 254.956 C 133.442 255.250,210.473 255.179,210.473 254.884 C 210.473 254.748,210.558 254.650,210.662 254.665 C 211.594 254.799,211.987 254.294,211.987 252.967 C 211.987 251.941,211.897 251.609,211.617 251.609 C 211.385 251.609,211.303 251.462,211.397 251.215 C 211.486 250.983,211.289 250.543,210.917 250.143 C 209.220 248.317,209.231 247.275,210.932 248.707 C 211.509 249.192,211.967 249.338,212.921 249.338 C 213.821 249.338,214.378 249.498,214.954 249.923 C 215.509 250.332,216.149 250.526,217.085 250.567 C 218.022 250.608,218.691 250.810,219.320 251.243 C 219.813 251.583,220.413 251.861,220.653 251.861 C 220.892 251.861,221.511 252.041,222.027 252.260 C 223.340 252.819,223.730 252.907,225.802 253.112 C 227.056 253.236,227.796 253.444,228.162 253.776 C 228.600 254.173,229.219 254.283,231.635 254.397 C 233.858 254.502,234.740 254.645,235.254 254.985 C 235.628 255.232,236.367 255.476,236.895 255.527 C 237.423 255.578,238.650 255.688,239.621 255.772 C 240.593 255.856,242.467 256.110,243.785 256.335 C 247.341 256.943,269.000 256.939,272.681 256.330 C 274.069 256.100,276.161 255.846,277.330 255.766 C 278.498 255.685,279.662 255.508,279.916 255.372 C 280.171 255.236,280.379 255.188,280.379 255.266 C 280.379 255.344,280.748 255.214,281.199 254.978 C 281.762 254.684,282.928 254.502,284.921 254.397 C 287.357 254.269,287.945 254.156,288.580 253.693 C 289.109 253.308,289.757 253.126,290.726 253.090 C 292.210 253.036,293.502 252.698,293.502 252.365 C 293.502 252.253,294.067 252.083,294.759 251.988 C 295.450 251.893,296.322 251.574,296.697 251.279 C 297.180 250.899,297.842 250.714,298.978 250.642 C 300.293 250.558,300.662 250.433,301.051 249.939 C 301.435 249.451,301.758 249.338,302.768 249.338 C 303.770 249.338,304.129 249.214,304.606 248.707 C 304.932 248.360,305.418 248.076,305.686 248.076 C 305.954 248.076,306.511 247.792,306.923 247.445 C 307.335 247.098,307.939 246.814,308.264 246.814 C 309.113 246.814,309.653 246.560,309.653 246.161 C 309.653 245.810,310.266 245.574,311.420 245.478 C 311.768 245.449,312.307 245.170,312.619 244.858 C 312.931 244.546,313.385 244.288,313.628 244.286 C 313.871 244.283,314.337 244.000,314.664 243.655 C 315.677 242.587,316.570 242.951,317.614 244.858 C 317.823 245.240,318.117 245.552,318.267 245.552 C 318.417 245.552,318.757 245.829,319.024 246.168 C 319.290 246.507,319.727 246.853,319.994 246.938 C 320.261 247.023,320.549 247.313,320.635 247.584 C 320.721 247.854,320.959 248.076,321.164 248.076 C 321.369 248.076,321.821 248.360,322.168 248.707 C 322.515 249.054,323.008 249.338,323.263 249.338 C 323.519 249.338,323.913 249.621,324.141 249.968 C 324.368 250.315,324.770 250.599,325.035 250.599 C 325.299 250.599,325.722 250.858,325.975 251.175 C 326.228 251.492,326.918 251.894,327.508 252.069 C 328.098 252.243,328.580 252.502,328.580 252.643 C 328.580 252.785,328.694 252.830,328.833 252.744 C 328.972 252.659,329.085 252.709,329.085 252.856 C 329.085 253.003,329.364 253.123,329.705 253.123 C 330.045 253.123,330.608 253.407,330.955 253.754 C 331.471 254.270,331.832 254.385,332.940 254.385 C 334.048 254.385,334.388 254.493,334.811 254.980 C 335.335 255.583,337.766 256.133,340.358 256.236 C 340.933 256.259,341.357 256.351,341.301 256.442 C 341.028 256.886,351.688 256.956,352.007 256.512 C 352.101 256.383,352.688 256.243,353.312 256.201 C 354.334 256.132,355.825 255.901,357.603 255.535 C 357.950 255.463,358.408 255.204,358.621 254.958 C 359.095 254.411,359.470 254.304,360.708 254.362 C 361.398 254.394,361.870 254.237,362.388 253.801 C 362.784 253.468,363.560 253.123,364.113 253.034 C 364.666 252.946,365.182 252.709,365.259 252.507 C 365.336 252.306,365.797 252.067,366.284 251.975 C 366.813 251.876,367.328 251.566,367.565 251.204 C 367.783 250.872,368.188 250.599,368.465 250.599 C 368.754 250.599,369.089 250.338,369.248 249.988 C 369.402 249.652,369.810 249.305,370.156 249.218 C 370.502 249.132,370.717 248.992,370.633 248.909 C 370.419 248.695,371.267 248.093,371.796 248.084 C 372.038 248.079,372.537 247.738,372.904 247.326 C 373.272 246.913,373.678 246.641,373.806 246.720 C 373.935 246.800,374.103 246.626,374.179 246.335 C 374.255 246.043,374.456 245.804,374.624 245.804 C 374.992 245.804,376.220 244.304,377.001 242.900 C 377.311 242.343,377.901 241.694,378.313 241.458 C 378.799 241.179,379.118 240.751,379.220 240.242 C 379.318 239.749,379.588 239.376,379.941 239.241 C 380.438 239.052,381.208 237.680,381.109 237.161 C 381.089 237.057,381.173 236.972,381.297 236.972 C 381.420 236.972,381.596 236.574,381.687 236.088 C 381.778 235.603,381.936 235.205,382.039 235.205 C 382.396 235.205,383.091 233.734,383.091 232.979 C 383.091 231.973,383.321 231.420,383.737 231.420 C 384.023 231.420,384.720 229.026,384.730 228.013 C 384.731 227.874,384.816 227.698,384.918 227.621 C 385.020 227.545,385.134 226.892,385.170 226.171 C 385.207 225.450,385.311 224.859,385.403 224.859 C 385.725 224.857,385.616 215.195,385.290 214.792 C 385.049 214.494,385.051 214.454,385.300 214.604 C 385.473 214.708,385.615 214.673,385.615 214.526 C 385.615 214.379,385.530 214.259,385.426 214.259 C 385.322 214.259,385.246 213.691,385.258 212.997 C 385.269 212.303,385.202 211.735,385.108 211.735 C 384.874 211.735,384.353 209.932,384.353 209.119 C 384.353 208.753,384.240 208.454,384.101 208.454 C 383.962 208.454,383.862 208.369,383.878 208.265 C 383.956 207.775,383.826 207.429,383.614 207.560 C 383.262 207.777,383.032 207.257,382.965 206.090 C 382.924 205.386,382.778 205.022,382.515 204.970 C 382.282 204.924,382.007 204.398,381.829 203.658 C 381.667 202.979,381.316 202.174,381.051 201.867 C 380.785 201.561,380.568 201.101,380.568 200.845 C 380.568 200.588,380.448 200.379,380.301 200.379 C 380.154 200.379,380.103 200.265,380.189 200.126 C 380.275 199.987,380.160 199.874,379.934 199.874 C 379.408 199.874,378.857 199.329,378.987 198.938 C 379.042 198.773,378.853 198.491,378.566 198.312 C 378.279 198.132,378.044 197.843,378.044 197.668 C 378.044 197.493,377.931 197.350,377.792 197.350 C 377.653 197.350,377.539 197.231,377.539 197.084 C 377.539 196.670,376.188 195.079,375.836 195.079 C 375.662 195.079,375.521 194.934,375.521 194.757 C 375.521 194.579,375.180 194.061,374.763 193.605 C 374.347 193.149,374.006 192.670,374.006 192.540 C 374.006 192.409,373.725 192.303,373.381 192.303 C 372.990 192.303,372.599 192.063,372.337 191.663 C 372.106 191.310,371.795 191.063,371.646 191.113 C 371.496 191.163,371.105 190.883,370.775 190.491 C 370.446 190.100,370.018 189.779,369.826 189.779 C 369.633 189.779,369.289 189.495,369.062 189.148 C 368.835 188.801,368.440 188.517,368.186 188.517 C 367.931 188.517,367.417 188.233,367.042 187.886 C 366.639 187.513,366.061 187.256,365.625 187.256 C 364.759 187.256,363.839 186.821,364.034 186.504 C 364.216 186.210,363.173 185.896,361.562 185.759 C 361.450 185.749,361.420 185.641,361.497 185.518 C 361.754 185.101,361.015 184.776,359.646 184.703 C 358.631 184.650,358.136 184.486,357.713 184.062 C 357.186 183.535,356.905 183.491,353.903 183.459 C 349.826 183.415,349.565 183.388,348.644 182.917 C 348.227 182.705,347.626 182.553,347.308 182.580 C 346.478 182.652,346.445 182.510,346.463 178.987 C 346.473 177.011,346.373 175.674,346.200 175.465 C 346.047 175.281,345.993 175.059,346.080 174.972 C 346.167 174.885,346.051 174.676,345.822 174.509 C 345.514 174.284,345.363 173.616,345.242 171.940 C 345.123 170.286,344.943 169.476,344.574 168.938 C 344.296 168.533,344.047 167.918,344.020 167.571 C 343.930 166.437,343.817 166.019,343.553 165.847 C 343.034 165.510,342.727 164.574,342.682 163.194 C 342.651 162.249,342.544 161.839,342.359 161.950 C 342.207 162.041,342.229 161.934,342.410 161.711 C 342.662 161.399,342.668 161.264,342.434 161.119 C 342.229 160.993,342.190 161.047,342.314 161.286 C 342.415 161.481,342.314 161.413,342.090 161.136 C 341.865 160.858,341.620 160.347,341.545 160.000 C 341.470 159.653,341.354 159.199,341.288 158.991 C 341.221 158.782,341.178 158.581,341.193 158.543 C 341.258 158.375,340.313 156.972,340.135 156.972 C 340.026 156.972,339.937 156.805,339.937 156.602 C 339.937 156.399,339.710 156.111,339.432 155.962 C 339.077 155.772,338.927 155.434,338.927 154.818 C 338.927 154.337,338.807 153.943,338.660 153.943 C 338.513 153.943,338.453 153.846,338.526 153.728 C 338.599 153.609,338.393 153.391,338.068 153.243 C 337.675 153.064,337.421 152.673,337.309 152.077 C 337.216 151.584,336.969 151.085,336.760 150.968 C 336.551 150.851,336.361 150.515,336.339 150.221 C 336.317 149.928,336.223 149.735,336.130 149.793 C 336.037 149.850,335.891 149.551,335.807 149.127 C 335.722 148.704,335.547 148.423,335.418 148.503 C 335.289 148.583,335.109 148.311,335.019 147.900 C 334.928 147.489,334.663 147.092,334.430 147.017 C 334.197 146.943,333.506 146.257,332.896 145.492 C 332.285 144.727,331.689 144.101,331.571 144.101 C 331.453 144.101,331.356 143.931,331.356 143.722 C 331.356 143.514,331.271 143.343,331.167 143.342 C 331.063 143.341,330.708 142.944,330.378 142.459 C 330.047 141.974,329.650 141.574,329.494 141.571 C 329.339 141.567,329.012 141.132,328.769 140.604 C 328.526 140.075,328.043 139.491,327.697 139.306 C 327.350 139.120,327.066 138.825,327.066 138.649 C 327.066 138.474,326.839 138.258,326.562 138.170 C 326.284 138.082,326.057 137.908,326.057 137.783 C 326.057 137.433,324.368 135.826,323.560 135.408 C 323.162 135.203,322.770 134.860,322.688 134.647 C 322.606 134.433,322.365 134.259,322.152 134.259 C 321.939 134.259,321.205 133.719,320.523 133.060 C 319.010 131.599,317.611 130.473,317.309 130.473 C 317.185 130.473,316.711 130.132,316.255 129.716 C 315.799 129.300,315.320 128.959,315.189 128.959 C 315.059 128.959,314.953 128.796,314.953 128.597 C 314.953 128.399,314.725 128.164,314.447 128.075 C 314.168 127.987,313.597 127.626,313.178 127.273 C 312.673 126.848,312.212 126.670,311.813 126.747 C 311.371 126.831,311.127 126.706,310.896 126.274 C 310.723 125.951,310.344 125.621,310.054 125.540 C 309.152 125.290,308.403 124.854,308.528 124.651 C 308.594 124.544,308.274 124.334,307.817 124.183 C 307.360 124.032,306.823 123.682,306.623 123.405 C 306.424 123.129,306.022 122.902,305.731 122.902 C 305.440 122.902,304.955 122.618,304.653 122.271 C 304.304 121.870,303.838 121.640,303.375 121.640 C 302.886 121.640,302.516 121.443,302.254 121.044 C 302.040 120.717,301.529 120.382,301.120 120.300 C 300.711 120.218,300.190 119.965,299.963 119.737 C 299.735 119.510,299.190 119.267,298.752 119.198 C 298.314 119.129,297.740 118.799,297.477 118.464 C 297.123 118.013,296.751 117.855,296.051 117.855 C 295.367 117.855,294.939 117.680,294.511 117.224 C 294.185 116.877,293.663 116.593,293.351 116.593 C 293.039 116.593,292.446 116.309,292.033 115.962 C 291.621 115.615,291.064 115.331,290.796 115.331 C 290.528 115.331,290.042 115.047,289.716 114.700 C 289.288 114.245,288.860 114.069,288.177 114.069 C 287.543 114.069,286.990 113.867,286.502 113.456 C 286.063 113.086,285.355 112.803,284.723 112.744 C 284.146 112.690,283.472 112.464,283.225 112.242 C 282.978 112.019,282.435 111.756,282.019 111.656 C 281.603 111.555,280.752 111.206,280.128 110.879 C 279.414 110.504,278.564 110.284,277.833 110.284 C 277.013 110.284,276.544 110.143,276.238 109.805 C 276.000 109.542,275.308 109.201,274.700 109.048 C 272.240 108.429,273.490 107.819,276.388 108.224 C 278.496 108.519,343.321 108.442,345.308 108.143 L 346.514 107.961 346.477 96.316 L 346.439 84.672 345.819 83.487 C 345.360 82.608,345.176 81.803,345.109 80.377 C 345.058 79.292,344.873 78.273,344.686 78.042 C 344.503 77.816,344.475 77.705,344.625 77.794 C 345.019 78.030,343.603 74.040,343.120 73.558 C 342.896 73.333,342.713 72.768,342.713 72.301 C 342.713 71.155,342.305 70.158,341.836 70.158 C 341.484 70.158,341.331 69.560,341.390 68.414 C 341.425 67.734,340.953 66.843,340.655 67.027 C 340.475 67.139,340.432 67.097,340.544 66.916 C 340.643 66.756,340.597 66.625,340.442 66.625 C 340.286 66.625,340.218 66.530,340.290 66.413 C 340.362 66.297,340.229 65.929,339.995 65.595 C 339.761 65.261,339.548 64.835,339.520 64.648 C 339.493 64.462,339.291 64.111,339.073 63.870 C 338.854 63.628,338.675 63.248,338.675 63.026 C 338.675 62.803,338.448 62.549,338.170 62.461 C 337.893 62.372,337.666 62.081,337.666 61.813 C 337.666 61.544,337.562 61.325,337.436 61.325 C 337.309 61.325,337.238 61.126,337.279 60.883 C 337.319 60.640,337.152 60.215,336.907 59.937 C 336.662 59.659,336.378 59.158,336.276 58.823 C 336.174 58.487,335.821 57.943,335.490 57.612 C 335.160 57.282,334.890 56.844,334.890 56.638 C 334.890 56.433,334.606 56.157,334.259 56.025 C 333.912 55.893,333.624 55.641,333.620 55.464 C 333.609 55.027,332.465 53.754,332.084 53.754 C 331.915 53.754,331.850 53.681,331.939 53.592 C 332.110 53.421,330.709 51.495,330.165 51.155 C 329.987 51.044,329.842 50.721,329.842 50.437 C 329.842 50.145,329.637 49.868,329.368 49.797 C 329.108 49.729,328.769 49.399,328.617 49.064 C 328.464 48.729,328.163 48.454,327.949 48.454 C 327.734 48.454,327.446 48.159,327.309 47.798 C 327.154 47.391,326.925 47.192,326.707 47.276 C 326.484 47.362,326.299 47.184,326.199 46.788 C 326.113 46.445,325.762 46.058,325.419 45.928 C 325.076 45.797,324.795 45.518,324.795 45.306 C 324.795 44.939,324.692 44.878,323.975 44.820 C 323.625 44.792,323.028 44.295,323.028 44.031 C 323.028 43.680,319.889 40.883,319.494 40.883 C 319.267 40.883,318.835 40.599,318.533 40.252 C 318.231 39.905,317.822 39.621,317.624 39.621 C 317.425 39.621,316.901 39.293,316.460 38.891 C 314.954 37.522,314.664 37.314,314.115 37.209 C 313.812 37.151,313.356 36.818,313.102 36.470 C 312.824 36.090,312.390 35.836,312.017 35.836 C 311.675 35.836,311.132 35.552,310.811 35.205 C 310.489 34.858,309.992 34.574,309.707 34.574 C 309.421 34.574,308.850 34.290,308.437 33.943 C 308.025 33.596,307.468 33.312,307.200 33.312 C 306.932 33.312,306.446 33.028,306.120 32.681 C 305.715 32.250,305.258 32.050,304.676 32.050 C 304.109 32.050,303.639 31.853,303.269 31.459 C 302.960 31.130,302.277 30.798,301.730 30.712 C 301.190 30.626,300.501 30.325,300.200 30.042 C 299.855 29.718,299.311 29.527,298.732 29.527 C 298.126 29.527,297.645 29.348,297.324 29.004 C 296.793 28.434,296.395 28.314,294.941 28.284 C 294.249 28.270,293.813 28.083,293.376 27.611 C 293.043 27.252,292.671 27.019,292.549 27.094 C 292.240 27.285,289.551 26.633,289.098 26.257 C 288.893 26.087,288.243 25.901,287.653 25.844 C 287.063 25.787,286.122 25.507,285.561 25.220 C 284.788 24.825,283.777 24.649,281.361 24.491 C 279.610 24.377,277.935 24.153,277.638 23.994 C 277.341 23.835,277.098 23.768,277.098 23.846 C 277.098 23.923,276.842 23.822,276.530 23.622 C 276.151 23.378,275.218 23.250,273.730 23.238 C 272.503 23.227,271.405 23.160,271.290 23.090 C 271.176 23.019,269.031 22.947,266.525 22.930 C 264.018 22.912,262.025 22.806,262.095 22.692 C 262.613 21.853,253.517 21.647,251.230 22.446 M270.789 32.959 C 277.710 33.994,281.349 34.674,284.164 35.459 C 285.344 35.788,286.991 36.223,287.823 36.425 C 290.571 37.093,297.001 39.480,299.593 40.795 C 300.236 41.121,300.897 41.388,301.063 41.388 C 301.228 41.388,302.178 41.871,303.174 42.461 C 304.169 43.050,305.211 43.624,305.489 43.735 C 306.032 43.952,306.587 44.301,309.905 46.513 C 317.407 51.512,323.617 57.821,328.054 64.954 C 330.153 68.327,333.173 74.762,333.482 76.519 C 333.572 77.034,333.859 77.942,334.119 78.538 C 335.229 81.085,337.012 91.525,336.870 94.647 C 336.779 96.647,336.752 96.722,335.837 97.561 L 334.897 98.423 309.467 98.419 C 289.711 98.416,283.897 98.345,283.407 98.102 C 282.451 97.626,281.914 96.237,281.407 92.930 C 281.154 91.278,280.749 89.482,280.507 88.938 C 279.228 86.070,278.749 85.263,277.269 83.486 C 274.545 80.215,271.089 77.963,267.264 76.966 C 266.218 76.694,264.770 76.307,264.045 76.106 C 260.060 75.004,250.753 75.083,246.357 76.256 C 245.290 76.541,243.735 76.938,242.902 77.140 C 230.629 80.108,225.357 92.606,232.859 100.950 C 235.227 103.584,245.297 109.451,249.590 110.698 C 250.353 110.920,251.262 111.253,251.609 111.438 C 252.979 112.169,258.123 114.139,259.450 114.441 C 260.223 114.616,261.105 114.894,261.409 115.056 C 261.713 115.219,263.301 115.786,264.936 116.315 C 266.572 116.845,268.189 117.427,268.529 117.610 C 268.870 117.793,269.773 118.081,270.536 118.251 C 271.300 118.421,272.492 118.790,273.186 119.070 C 275.680 120.079,279.267 121.461,280.507 121.892 C 281.203 122.134,282.223 122.574,282.775 122.869 C 283.327 123.165,283.919 123.407,284.091 123.407 C 284.372 123.407,285.527 123.925,290.978 126.497 C 293.310 127.598,295.714 128.815,297.035 129.563 C 297.659 129.917,298.738 130.497,299.432 130.851 C 300.802 131.551,301.590 132.019,304.101 133.625 C 305.003 134.202,306.423 135.110,307.256 135.642 C 315.366 140.823,324.195 149.403,328.296 156.088 C 329.749 158.456,333.100 165.460,333.377 166.706 C 333.529 167.390,333.919 168.801,334.245 169.842 C 335.060 172.455,335.617 174.936,335.887 177.166 C 336.012 178.204,336.227 179.418,336.365 179.863 C 336.738 181.072,336.973 188.839,336.711 191.293 C 336.377 194.414,336.451 194.483,339.062 193.506 C 340.465 192.981,340.980 192.942,346.625 192.938 L 352.681 192.934 355.916 194.025 C 364.720 196.996,372.123 203.641,373.759 210.042 C 373.908 210.626,374.257 211.647,374.533 212.310 C 375.723 215.165,375.729 224.194,374.542 227.040 C 374.261 227.714,373.908 228.743,373.759 229.327 C 372.290 235.077,363.123 243.761,357.161 245.052 C 356.502 245.195,355.394 245.562,354.700 245.868 C 352.560 246.811,341.097 246.720,338.442 245.739 C 337.411 245.359,336.362 245.047,336.110 245.047 C 335.508 245.047,331.341 242.873,329.303 241.496 C 325.321 238.806,321.243 233.787,320.038 230.094 C 319.390 228.108,319.116 228.084,316.950 229.819 C 314.780 231.557,311.790 233.691,311.524 233.691 C 311.424 233.691,310.990 233.955,310.560 234.278 C 310.131 234.601,309.155 235.193,308.391 235.593 C 307.628 235.993,306.710 236.517,306.353 236.758 C 305.995 236.999,305.257 237.360,304.712 237.561 C 304.168 237.761,302.757 238.343,301.577 238.853 C 298.529 240.172,295.809 241.162,294.649 241.374 C 294.100 241.474,293.231 241.771,292.718 242.033 C 292.204 242.295,291.177 242.614,290.435 242.742 C 289.692 242.870,287.552 243.385,285.678 243.887 C 283.368 244.505,281.256 244.883,279.117 245.060 C 277.382 245.204,275.320 245.487,274.535 245.690 C 269.846 246.900,245.729 246.901,241.058 245.691 C 240.256 245.483,238.753 245.244,237.718 245.160 C 235.403 244.972,231.214 244.175,228.517 243.409 C 227.407 243.094,226.044 242.758,225.489 242.664 C 224.934 242.569,223.779 242.215,222.922 241.877 C 222.066 241.539,221.044 241.257,220.651 241.251 C 220.258 241.245,219.539 241.085,219.054 240.895 C 217.758 240.389,212.585 238.367,210.978 237.738 C 210.215 237.440,208.708 236.741,207.631 236.186 C 206.553 235.630,204.850 234.753,203.845 234.236 C 201.914 233.241,201.319 232.886,199.157 231.439 C 198.415 230.942,197.450 230.317,197.012 230.049 C 194.134 228.292,187.704 222.574,184.363 218.801 C 182.524 216.725,182.632 217.674,184.683 221.622 C 188.306 228.595,190.635 233.117,191.482 234.826 C 191.963 235.798,192.480 236.820,192.630 237.098 C 192.780 237.375,193.390 238.559,193.985 239.729 C 194.580 240.898,195.183 241.972,195.325 242.114 C 195.798 242.587,195.603 243.680,194.932 244.309 L 194.281 244.921 166.902 244.988 C 136.561 245.061,138.478 245.161,137.168 243.435 C 136.841 243.003,134.873 239.300,132.796 235.205 C 130.718 231.110,127.584 224.978,125.832 221.577 C 124.079 218.177,122.473 214.997,122.263 214.511 C 122.052 214.025,121.748 213.401,121.587 213.123 C 121.426 212.845,120.021 210.120,118.465 207.066 C 116.909 204.013,115.401 201.060,115.113 200.505 C 114.826 199.950,114.436 199.155,114.246 198.738 C 114.057 198.322,113.411 197.073,112.812 195.962 C 112.213 194.852,111.450 193.375,111.116 192.681 C 110.782 191.987,110.381 191.192,110.224 190.915 C 110.067 190.637,109.785 190.069,109.596 189.653 C 109.408 189.237,109.068 188.555,108.842 188.139 C 108.616 187.722,107.162 184.883,105.611 181.830 C 103.622 177.915,102.612 176.186,102.184 175.966 C 101.424 175.576,79.109 175.503,78.870 175.890 C 78.788 176.023,78.696 191.156,78.666 209.517 C 78.615 240.977,78.586 242.940,78.166 243.559 C 77.075 245.164,78.701 245.079,50.417 244.996 L 24.746 244.921 24.171 244.346 L 23.596 243.771 23.525 140.245 C 23.485 83.306,23.520 36.341,23.603 35.878 C 23.959 33.886,20.066 34.026,71.995 34.142 C 119.665 34.248,120.467 34.266,126.183 35.326 C 127.640 35.597,130.210 35.985,131.893 36.189 C 133.577 36.393,135.390 36.743,135.924 36.966 C 136.457 37.188,137.734 37.488,138.763 37.631 C 139.791 37.774,141.555 38.234,142.682 38.654 C 143.810 39.074,145.470 39.624,146.372 39.876 C 147.274 40.128,148.524 40.569,149.148 40.856 C 149.773 41.142,150.489 41.379,150.739 41.382 C 151.422 41.391,159.075 45.236,161.423 46.751 C 167.443 50.635,168.757 51.665,172.759 55.647 C 175.720 58.593,177.508 60.739,179.558 63.810 C 181.124 66.155,181.003 66.167,182.897 63.453 C 186.559 58.202,192.171 52.419,196.563 49.369 C 200.167 46.866,202.030 45.652,203.155 45.071 C 209.594 41.747,212.699 40.268,214.006 39.901 C 214.492 39.765,216.133 39.192,217.652 38.628 C 219.172 38.064,220.627 37.603,220.886 37.603 C 221.144 37.603,221.945 37.330,222.665 36.997 C 223.386 36.664,224.656 36.315,225.489 36.221 C 226.322 36.127,227.912 35.788,229.022 35.467 C 232.260 34.531,235.974 33.817,237.607 33.817 C 238.439 33.817,239.517 33.702,240.002 33.562 C 244.107 32.375,264.242 31.981,270.789 32.959 M79.227 79.045 C 78.958 79.145,78.736 79.315,78.734 79.424 C 78.662 83.082,78.745 130.564,78.824 130.643 C 78.887 130.706,86.701 130.751,96.188 130.743 L 113.438 130.729 116.215 130.057 C 125.291 127.860,131.631 122.378,133.125 115.436 C 133.212 115.031,133.569 113.650,133.918 112.367 C 134.721 109.419,134.711 99.772,133.903 97.679 C 133.664 97.061,133.367 96.018,133.243 95.361 C 131.628 86.847,123.013 80.326,111.963 79.253 C 108.798 78.946,79.989 78.763,79.227 79.045 M260.214 85.366 C 260.437 85.409,260.917 85.640,261.282 85.879 C 261.646 86.118,262.544 86.372,263.275 86.444 C 264.007 86.516,264.890 86.647,265.237 86.736 C 265.584 86.824,265.981 86.869,266.120 86.834 C 266.259 86.800,266.288 86.856,266.185 86.959 C 265.833 87.311,266.560 87.823,267.413 87.823 C 268.058 87.823,268.265 87.931,268.265 88.267 C 268.265 88.512,268.478 88.844,268.738 89.007 C 268.998 89.169,269.290 89.616,269.386 89.999 C 269.482 90.382,269.764 90.873,270.012 91.089 C 270.261 91.306,270.549 91.767,270.653 92.114 C 270.756 92.461,271.023 93.028,271.245 93.375 C 271.739 94.146,271.798 94.896,271.886 101.451 C 271.924 104.297,272.042 106.865,272.150 107.159 C 272.361 107.740,271.311 108.182,270.839 107.710 C 270.714 107.585,270.367 107.464,270.069 107.441 C 269.771 107.419,269.527 107.254,269.527 107.076 C 269.527 106.897,269.356 106.737,269.148 106.719 C 268.940 106.702,268.656 106.659,268.517 106.625 C 268.379 106.590,267.873 106.547,267.395 106.530 C 266.849 106.510,266.271 106.263,265.844 105.868 C 265.331 105.392,264.888 105.237,264.046 105.237 C 263.316 105.237,262.564 105.022,261.875 104.619 C 261.295 104.279,260.730 104.007,260.620 104.014 C 260.293 104.035,258.813 103.390,258.652 103.156 C 258.523 102.968,257.712 102.787,256.739 102.730 C 256.576 102.721,256.105 102.429,255.693 102.082 C 255.173 101.644,254.641 101.451,253.956 101.451 C 253.299 101.451,252.682 101.240,252.114 100.820 C 251.643 100.473,251.119 100.189,250.948 100.189 C 250.778 100.189,250.301 99.905,249.888 99.558 C 249.363 99.116,248.837 98.927,248.131 98.927 C 247.336 98.927,247.038 98.795,246.711 98.297 C 246.454 97.904,246.061 97.666,245.671 97.666 C 245.317 97.666,244.805 97.391,244.495 97.035 C 244.194 96.688,243.696 96.404,243.390 96.404 C 243.070 96.404,242.652 96.126,242.406 95.751 C 242.171 95.392,241.917 95.159,241.843 95.234 C 241.714 95.363,241.009 94.797,241.009 94.564 C 241.009 94.504,240.612 94.034,240.126 93.519 C 238.894 92.213,238.932 91.355,240.282 90.006 C 240.854 89.434,241.450 88.965,241.607 88.963 C 241.764 88.961,242.148 88.703,242.461 88.391 C 242.773 88.079,243.220 87.823,243.454 87.823 C 243.688 87.823,244.142 87.576,244.464 87.274 C 244.935 86.831,245.475 86.694,247.256 86.565 C 248.717 86.459,249.693 86.255,250.142 85.960 C 251.322 85.185,257.413 84.826,260.214 85.366 M113.143 90.244 C 114.000 90.291,115.184 90.333,115.775 90.338 C 116.599 90.345,116.976 90.494,117.397 90.978 C 117.699 91.325,118.217 91.609,118.548 91.609 C 119.339 91.609,121.893 94.249,121.893 95.067 C 121.893 95.386,122.134 95.888,122.429 96.183 C 122.906 96.660,123.027 97.106,123.127 98.753 C 123.145 99.048,123.266 99.142,123.470 99.020 C 123.722 98.869,123.722 98.909,123.472 99.218 C 123.300 99.431,123.222 99.668,123.299 99.745 C 123.376 99.822,123.500 100.493,123.574 101.236 C 123.649 101.979,123.840 102.700,124.000 102.839 C 124.371 103.162,124.284 107.359,123.866 109.274 C 123.508 110.918,123.540 110.801,123.294 111.360 C 123.186 111.605,123.157 112.031,123.229 112.307 C 123.312 112.625,123.261 112.747,123.088 112.640 C 122.917 112.535,122.875 112.626,122.975 112.885 C 123.179 113.417,122.707 114.770,122.107 115.369 C 121.850 115.626,121.640 115.951,121.640 116.092 C 121.640 116.423,120.088 117.838,119.714 117.847 C 119.556 117.852,119.241 118.139,119.014 118.486 C 118.691 118.978,118.387 119.117,117.628 119.117 C 116.282 119.117,115.060 119.387,115.222 119.649 C 115.297 119.770,115.181 119.800,114.966 119.718 C 114.750 119.635,114.574 119.674,114.574 119.805 C 114.574 119.935,114.432 120.060,114.259 120.081 C 111.481 120.424,108.456 120.485,99.489 120.379 L 88.820 120.252 88.763 104.795 C 88.732 96.293,88.707 89.312,88.707 89.282 C 88.707 89.251,93.306 89.166,98.927 89.092 L 109.148 88.959 110.367 89.559 C 111.139 89.940,112.157 90.191,113.143 90.244 M185.491 126.557 C 185.224 127.179,184.882 128.172,184.731 128.765 C 182.734 136.583,171.270 150.058,161.514 156.054 C 160.890 156.438,159.640 157.217,158.738 157.785 C 157.836 158.353,156.531 159.112,155.839 159.472 C 153.751 160.557,153.775 161.286,156.033 165.426 C 156.184 165.703,156.694 166.669,157.166 167.571 C 157.637 168.473,158.292 169.722,158.620 170.347 C 158.948 170.972,159.394 171.880,159.611 172.366 C 159.827 172.852,161.177 175.521,162.611 178.297 C 165.641 184.164,167.676 188.200,168.814 190.599 C 169.258 191.536,169.744 192.303,169.894 192.303 C 170.287 192.303,169.975 189.754,169.339 187.765 C 168.585 185.406,168.110 175.900,168.678 174.540 C 169.290 173.076,168.404 173.123,195.595 173.123 C 226.508 173.123,223.411 172.484,223.723 178.927 C 224.101 186.722,226.850 193.134,231.501 197.067 C 233.381 198.657,235.529 200.072,236.371 200.275 C 236.771 200.371,237.518 200.661,238.032 200.918 C 239.258 201.532,245.865 203.002,249.830 203.542 C 257.726 204.619,269.533 203.262,273.060 200.872 C 273.407 200.637,273.951 200.364,274.270 200.265 C 275.514 199.878,279.259 195.772,280.288 193.664 L 281.262 191.672 281.256 186.751 L 281.250 181.830 280.421 179.937 C 279.112 176.949,279.075 176.890,277.416 175.123 C 275.970 173.583,274.931 172.796,271.041 170.293 C 269.077 169.029,266.888 167.935,262.587 166.068 C 261.893 165.767,260.871 165.308,260.315 165.048 C 259.760 164.788,258.795 164.407,258.170 164.201 C 257.546 163.995,256.126 163.490,255.016 163.079 C 253.905 162.668,251.748 161.908,250.221 161.390 C 248.694 160.872,246.934 160.244,246.309 159.994 C 245.685 159.745,244.492 159.319,243.659 159.048 C 240.824 158.124,236.089 156.407,235.836 156.210 C 235.697 156.102,234.959 155.832,234.196 155.609 C 233.432 155.387,232.467 155.038,232.050 154.834 C 231.634 154.630,230.442 154.113,229.401 153.684 C 228.360 153.256,226.938 152.628,226.242 152.289 C 225.546 151.949,224.851 151.672,224.697 151.672 C 223.819 151.672,209.540 144.541,208.013 143.340 C 207.663 143.064,207.290 142.839,207.184 142.839 C 206.533 142.839,200.941 139.020,196.972 135.864 C 194.880 134.201,188.708 128.171,187.127 126.246 C 186.247 125.174,186.069 125.208,185.491 126.557 M189.464 142.633 C 189.429 142.797,189.712 143.087,190.093 143.277 C 190.473 143.467,190.903 143.843,191.048 144.114 C 191.193 144.384,191.469 144.606,191.662 144.606 C 191.856 144.606,192.237 144.890,192.510 145.237 C 192.783 145.584,193.129 145.868,193.280 145.868 C 193.430 145.868,193.739 146.151,193.966 146.498 C 194.194 146.845,194.599 147.129,194.868 147.129 C 195.136 147.129,195.618 147.413,195.940 147.760 C 196.262 148.107,196.702 148.391,196.919 148.391 C 197.136 148.391,197.525 148.660,197.783 148.988 C 198.041 149.316,198.504 149.665,198.811 149.762 C 199.118 149.860,199.479 150.145,199.614 150.396 C 199.757 150.664,200.141 150.852,200.545 150.852 C 200.959 150.852,201.420 151.085,201.706 151.438 C 201.968 151.761,202.425 152.062,202.722 152.107 C 203.019 152.153,203.526 152.437,203.847 152.739 C 204.169 153.042,204.741 153.329,205.118 153.378 C 205.496 153.427,206.065 153.744,206.382 154.083 C 206.700 154.423,207.177 154.700,207.442 154.700 C 207.707 154.700,208.230 154.984,208.604 155.331 C 209.046 155.740,209.579 155.962,210.121 155.962 C 210.701 155.962,211.147 156.167,211.576 156.629 C 211.945 157.027,212.349 157.236,212.579 157.148 C 212.799 157.063,213.362 157.317,213.898 157.743 C 214.412 158.152,215.036 158.486,215.283 158.486 C 215.531 158.486,216.072 158.770,216.484 159.117 C 216.978 159.533,217.542 159.748,218.138 159.748 C 218.824 159.748,219.142 159.900,219.455 160.379 C 219.743 160.817,220.097 161.009,220.619 161.009 C 221.051 161.009,221.548 161.218,221.789 161.500 C 222.020 161.770,222.549 162.041,222.965 162.102 C 224.358 162.306,225.868 162.793,225.868 163.038 C 225.868 163.192,215.335 163.281,197.083 163.281 C 176.004 163.281,168.345 163.206,168.472 163.000 C 168.567 162.845,169.142 162.499,169.749 162.231 C 170.355 161.963,170.852 161.642,170.852 161.519 C 170.852 161.396,171.107 161.222,171.420 161.131 C 171.732 161.040,172.216 160.695,172.496 160.364 C 172.775 160.033,173.229 159.724,173.505 159.678 C 174.048 159.586,177.161 156.684,177.161 156.270 C 177.161 156.131,177.445 155.946,177.792 155.859 C 178.139 155.771,178.423 155.605,178.423 155.489 C 178.423 155.181,181.512 152.039,181.744 152.111 C 181.852 152.144,182.068 151.934,182.224 151.643 C 182.379 151.353,182.998 150.644,183.598 150.068 C 184.199 149.493,184.728 148.865,184.774 148.673 C 184.820 148.481,185.220 147.919,185.662 147.425 C 186.104 146.931,186.661 146.094,186.899 145.566 C 187.181 144.941,187.500 144.606,187.813 144.606 C 188.078 144.606,188.225 144.492,188.139 144.353 C 188.053 144.215,188.101 144.101,188.245 144.101 C 188.390 144.101,188.584 143.789,188.678 143.407 C 188.869 142.625,189.622 141.884,189.464 142.633 M235.055 166.688 C 235.539 167.136,236.020 167.319,236.719 167.319 C 237.418 167.319,237.899 167.501,238.383 167.950 C 238.931 168.457,239.325 168.580,240.396 168.580 C 241.448 168.580,241.885 168.713,242.478 169.211 C 242.890 169.558,243.438 169.843,243.696 169.845 C 243.953 169.846,244.772 170.130,245.514 170.476 C 246.257 170.821,247.128 171.104,247.450 171.104 C 247.773 171.104,248.374 171.388,248.787 171.735 C 249.370 172.226,249.820 172.366,250.812 172.366 C 251.818 172.366,252.229 172.497,252.759 172.988 C 253.216 173.412,253.697 173.600,254.265 173.579 C 254.833 173.558,255.355 173.762,255.897 174.219 C 256.336 174.588,256.897 174.890,257.145 174.890 C 257.393 174.890,258.014 175.174,258.525 175.521 C 259.066 175.888,259.813 176.151,260.314 176.151 C 260.880 176.151,261.405 176.366,261.854 176.782 C 262.228 177.129,262.782 177.413,263.084 177.413 C 263.387 177.413,263.896 177.691,264.215 178.031 C 264.534 178.371,265.122 178.721,265.521 178.808 C 265.920 178.896,266.246 179.117,266.246 179.299 C 266.246 179.668,266.789 179.937,267.536 179.937 C 267.807 179.937,268.091 180.101,268.168 180.301 C 268.245 180.501,268.781 181.164,269.359 181.774 C 270.719 183.209,271.373 184.132,271.612 184.953 C 271.851 185.773,271.787 188.793,271.535 188.637 C 271.266 188.471,270.897 189.017,270.550 190.095 C 270.370 190.652,270.083 191.041,269.852 191.041 C 269.636 191.041,269.219 191.313,268.925 191.645 C 268.478 192.151,268.091 192.268,266.535 192.367 C 265.514 192.432,264.606 192.597,264.516 192.735 C 264.023 193.492,263.105 193.586,256.589 193.553 C 252.466 193.531,249.849 193.420,249.653 193.258 C 249.479 193.115,249.338 193.077,249.338 193.174 C 249.338 193.270,249.066 193.135,248.734 192.874 C 248.251 192.494,247.638 192.389,245.643 192.343 C 243.594 192.297,243.029 192.196,242.444 191.770 C 242.053 191.486,241.436 191.200,241.072 191.134 C 240.303 190.995,238.991 190.265,238.991 189.977 C 238.991 189.868,238.820 189.779,238.612 189.779 C 238.404 189.779,238.233 189.689,238.233 189.579 C 238.233 189.470,237.864 188.976,237.413 188.483 C 235.932 186.864,235.587 186.210,235.407 184.676 C 235.281 183.598,235.076 183.039,234.685 182.699 C 234.096 182.188,233.988 180.555,233.972 171.897 C 233.967 169.294,233.877 168.391,233.577 167.932 C 232.701 166.596,233.883 165.601,235.055 166.688 " stroke="none" fill="#9c9c9c" fill-rule="evenodd"></path><path id="path1" d="M246.376 22.894 C 246.759 22.952,247.327 22.950,247.638 22.891 C 247.948 22.831,247.634 22.783,246.940 22.785 C 246.246 22.787,245.992 22.836,246.376 22.894 M265.300 22.894 C 265.681 22.952,266.306 22.952,266.688 22.894 C 267.069 22.836,266.757 22.789,265.994 22.789 C 265.230 22.789,264.918 22.836,265.300 22.894 M247.930 33.561 C 246.392 33.672,244.518 33.883,243.766 34.030 C 243.013 34.177,241.319 34.424,240.000 34.579 C 235.228 35.141,232.273 35.622,230.756 36.085 C 229.906 36.345,228.334 36.679,227.264 36.828 C 223.464 37.357,213.644 40.841,207.823 43.726 C 203.219 46.009,202.774 46.269,197.911 49.517 C 192.512 53.123,186.480 59.431,182.580 65.547 C 181.471 67.286,180.733 67.591,180.243 66.515 C 179.403 64.673,175.256 59.406,172.373 56.522 C 168.497 52.645,166.590 51.155,160.379 47.153 C 157.924 45.572,152.057 42.783,149.148 41.814 C 146.310 40.868,145.617 40.640,143.722 40.029 C 141.502 39.314,138.477 38.524,136.909 38.250 C 136.353 38.153,135.161 37.847,134.259 37.570 C 133.356 37.293,131.199 36.954,129.464 36.816 C 127.729 36.678,125.230 36.321,123.912 36.022 L 121.514 35.479 73.275 35.397 C 29.285 35.322,25.001 35.351,24.632 35.720 C 24.262 36.090,24.227 44.995,24.227 139.537 L 24.227 242.950 24.758 243.431 C 25.613 244.204,75.402 244.307,76.656 243.539 L 77.476 243.036 77.476 209.348 L 77.476 175.660 78.221 175.275 C 79.425 174.652,101.467 174.704,102.685 175.332 C 103.564 175.785,104.271 177.029,108.671 185.868 C 109.431 187.394,110.236 188.984,110.460 189.401 C 111.009 190.422,115.039 198.308,119.875 207.823 C 122.061 212.126,125.128 218.145,126.689 221.199 C 128.250 224.252,131.372 230.383,133.628 234.823 C 136.394 240.269,137.949 243.060,138.409 243.403 C 139.469 244.194,193.147 244.336,194.100 243.550 C 194.700 243.056,194.700 243.055,194.228 242.222 C 193.968 241.763,193.560 240.991,193.322 240.505 C 192.760 239.358,191.265 236.418,188.382 230.789 C 185.006 224.195,183.884 221.985,183.568 221.301 C 183.246 220.606,181.990 218.269,180.919 216.373 C 180.518 215.662,180.189 214.861,180.189 214.592 C 180.189 214.323,180.023 213.882,179.819 213.613 C 179.400 213.059,179.306 211.987,179.676 211.987 C 179.810 211.987,180.051 212.243,180.212 212.555 C 180.373 212.868,180.831 213.387,181.230 213.709 C 181.629 214.032,181.956 214.410,181.956 214.550 C 181.956 215.527,190.718 224.277,194.700 227.277 C 199.341 230.772,210.120 236.972,211.556 236.972 C 211.735 236.972,212.331 237.202,212.880 237.483 C 213.430 237.764,214.334 238.113,214.890 238.260 C 215.445 238.406,216.868 238.910,218.053 239.380 C 219.238 239.850,220.941 240.407,221.839 240.617 C 222.736 240.828,224.067 241.229,224.798 241.510 C 225.528 241.790,226.382 242.019,226.697 242.019 C 227.011 242.019,228.628 242.341,230.290 242.735 C 234.926 243.834,242.631 245.027,248.833 245.607 C 253.377 246.032,268.361 245.681,271.672 245.072 C 273.199 244.792,275.413 244.491,276.593 244.404 C 279.160 244.214,283.454 243.442,285.561 242.791 C 286.399 242.533,287.762 242.247,288.589 242.157 C 289.417 242.067,290.833 241.725,291.735 241.396 C 292.637 241.068,294.170 240.550,295.142 240.245 C 303.473 237.631,312.418 232.803,317.660 228.089 C 319.302 226.612,320.295 226.900,320.640 228.954 C 321.672 235.099,329.906 242.236,338.927 244.806 C 345.409 246.652,355.952 245.622,360.165 242.731 C 360.534 242.478,360.943 242.271,361.074 242.271 C 362.398 242.271,368.362 236.933,370.294 234.018 C 373.918 228.551,375.617 219.911,374.132 214.503 C 373.924 213.744,373.573 212.442,373.353 211.609 C 369.969 198.799,352.323 190.317,338.495 194.852 C 337.632 195.135,336.610 195.330,336.223 195.286 L 335.521 195.205 335.602 189.148 C 335.687 182.777,334.611 173.146,333.524 170.559 C 333.310 170.051,333.015 169.086,332.868 168.414 C 330.802 158.996,320.901 146.198,309.605 138.347 C 309.145 138.028,308.088 137.287,307.256 136.701 C 305.962 135.792,300.619 132.549,298.170 131.187 C 296.086 130.028,288.475 126.335,285.804 125.187 C 284.139 124.470,282.322 123.664,281.767 123.396 C 281.211 123.127,280.132 122.690,279.369 122.425 C 277.946 121.930,276.044 121.217,272.934 120.012 C 271.962 119.635,270.487 119.158,269.656 118.951 C 268.824 118.743,267.632 118.368,267.006 118.116 C 266.380 117.865,264.845 117.313,263.596 116.890 C 262.347 116.468,260.700 115.903,259.937 115.636 C 259.174 115.369,257.981 114.955,257.287 114.717 C 248.497 111.698,239.408 107.351,235.087 104.099 C 223.297 95.226,227.215 81.201,242.902 76.123 C 262.195 69.878,280.944 78.241,282.647 93.851 C 282.825 95.483,283.007 96.104,283.439 96.564 L 284.000 97.161 309.209 97.161 C 325.402 97.161,334.585 97.071,334.886 96.910 C 335.975 96.328,336.118 93.062,335.251 88.580 C 334.508 84.741,334.404 84.133,334.241 82.650 C 334.149 81.817,333.863 80.625,333.605 80.000 C 333.347 79.375,333.012 78.297,332.862 77.604 C 332.283 74.934,329.483 68.979,326.902 64.927 C 320.116 54.274,308.644 45.023,296.530 40.436 C 292.318 38.841,287.707 37.269,286.562 37.038 C 285.868 36.897,284.448 36.568,283.407 36.306 C 281.215 35.753,277.718 35.116,271.672 34.166 C 266.992 33.431,254.210 33.105,247.930 33.561 M116.845 78.957 C 124.475 81.268,128.165 83.874,131.781 89.508 C 132.548 90.703,134.005 93.919,134.010 94.427 C 134.011 94.612,134.301 95.666,134.653 96.769 C 135.650 99.891,135.617 111.304,134.604 113.731 C 134.421 114.169,134.153 115.057,134.008 115.704 C 133.780 116.720,132.953 118.584,131.703 120.894 C 130.748 122.660,128.560 125.118,126.688 126.527 C 124.990 127.804,120.259 130.221,119.456 130.221 C 119.133 130.221,118.272 130.457,117.542 130.746 C 114.757 131.846,79.764 132.214,78.155 131.159 L 77.469 130.709 77.536 104.954 L 77.603 79.199 78.336 78.568 L 79.069 77.938 96.632 78.046 L 114.196 78.155 116.845 78.957 M295.225 108.707 C 304.015 108.743,318.324 108.743,327.023 108.707 C 335.722 108.670,328.530 108.640,311.041 108.640 C 293.552 108.640,286.435 108.670,295.225 108.707 M188.265 126.217 C 189.953 128.326,194.907 133.229,196.748 134.613 C 197.319 135.043,199.081 136.368,200.664 137.557 C 202.247 138.747,204.278 140.145,205.178 140.665 C 206.078 141.184,207.325 141.937,207.950 142.338 C 209.675 143.445,216.114 146.777,219.685 148.411 C 220.934 148.982,222.637 149.771,223.470 150.164 C 224.303 150.556,225.438 151.046,225.994 151.252 C 226.549 151.458,228.423 152.219,230.158 152.942 C 235.018 154.970,236.965 155.721,238.613 156.207 C 239.446 156.452,240.979 157.005,242.020 157.437 C 244.283 158.375,247.093 159.358,249.338 159.998 C 250.240 160.255,251.886 160.824,252.997 161.263 C 254.107 161.702,255.483 162.212,256.055 162.397 C 256.627 162.581,257.559 162.969,258.127 163.259 C 258.695 163.548,259.314 163.785,259.502 163.785 C 259.857 163.785,266.242 166.645,267.129 167.202 C 267.407 167.376,267.916 167.603,268.262 167.707 C 269.793 168.167,275.793 172.299,277.757 174.246 C 282.907 179.351,284.208 188.439,280.701 194.810 C 278.087 199.560,271.859 203.374,264.984 204.435 C 262.072 204.885,247.634 204.607,245.804 204.066 C 245.041 203.840,243.621 203.488,242.650 203.284 C 233.114 201.279,227.109 196.029,224.070 187.038 C 223.328 184.843,223.292 184.627,222.826 179.558 C 222.460 175.589,222.247 174.933,221.179 174.487 C 219.612 173.832,170.317 173.973,169.719 174.634 C 169.129 175.286,169.306 183.335,169.970 185.994 C 170.195 186.896,170.591 188.713,170.849 190.032 C 171.490 193.305,172.072 195.528,172.506 196.368 C 172.947 197.221,172.976 198.153,172.574 198.556 C 172.170 198.959,171.609 198.480,171.609 197.732 C 171.609 197.421,171.353 196.846,171.041 196.455 C 170.415 195.672,169.938 194.809,168.505 191.871 C 167.396 189.598,166.433 187.699,163.031 181.073 C 161.678 178.435,160.094 175.312,159.512 174.132 C 158.931 172.953,158.346 171.817,158.213 171.609 C 158.080 171.401,157.119 169.527,156.078 167.445 C 155.036 165.363,153.959 163.264,153.685 162.780 C 152.660 160.974,153.220 159.808,155.782 158.413 C 164.593 153.614,171.871 147.487,177.225 140.361 C 180.104 136.529,183.375 130.572,184.023 127.981 C 185.116 123.611,185.913 123.280,188.265 126.217 " stroke="none" fill="#fbfbfb" fill-rule="evenodd"></path><path id="path2" d="M249.590 32.560 C 244.234 32.740,242.060 32.967,240.002 33.562 C 239.517 33.702,238.439 33.817,237.607 33.817 C 235.974 33.817,232.260 34.531,229.022 35.467 C 227.912 35.788,226.322 36.127,225.489 36.221 C 224.656 36.315,223.386 36.664,222.665 36.997 C 221.945 37.330,221.144 37.603,220.886 37.603 C 220.627 37.603,219.172 38.064,217.652 38.628 C 216.133 39.192,214.492 39.765,214.006 39.901 C 212.699 40.268,209.594 41.747,203.155 45.071 C 202.030 45.652,200.167 46.866,196.563 49.369 C 192.171 52.419,186.559 58.202,182.897 63.453 C 181.003 66.167,181.124 66.155,179.558 63.810 C 173.915 55.358,165.985 48.693,155.282 43.407 C 153.034 42.296,150.990 41.386,150.739 41.382 C 150.489 41.379,149.773 41.142,149.148 40.856 C 148.524 40.569,147.274 40.128,146.372 39.876 C 145.470 39.624,143.810 39.074,142.682 38.654 C 141.555 38.234,139.791 37.774,138.763 37.631 C 137.734 37.488,136.457 37.188,135.924 36.966 C 135.390 36.743,133.577 36.393,131.893 36.189 C 130.210 35.985,127.640 35.597,126.183 35.326 C 120.467 34.266,119.665 34.248,71.995 34.142 C 20.066 34.026,23.959 33.886,23.603 35.878 C 23.520 36.341,23.485 83.306,23.525 140.245 L 23.596 243.771 24.171 244.346 L 24.746 244.921 50.417 244.996 C 78.701 245.079,77.075 245.164,78.166 243.559 C 78.586 242.940,78.615 240.977,78.666 209.517 C 78.696 191.156,78.788 176.023,78.870 175.890 C 79.109 175.503,101.424 175.576,102.184 175.966 C 102.612 176.186,103.622 177.915,105.611 181.830 C 107.162 184.883,108.616 187.722,108.842 188.139 C 109.068 188.555,109.408 189.237,109.596 189.653 C 109.785 190.069,110.067 190.637,110.224 190.915 C 110.381 191.192,110.782 191.987,111.116 192.681 C 111.450 193.375,112.213 194.852,112.812 195.962 C 113.411 197.073,114.057 198.322,114.246 198.738 C 114.436 199.155,114.826 199.950,115.113 200.505 C 115.401 201.060,116.909 204.013,118.465 207.066 C 120.021 210.120,121.426 212.845,121.587 213.123 C 121.748 213.401,122.052 214.025,122.263 214.511 C 122.473 214.997,124.079 218.177,125.832 221.577 C 127.584 224.978,130.718 231.110,132.796 235.205 C 134.873 239.300,136.841 243.003,137.168 243.435 C 138.478 245.161,136.561 245.061,166.902 244.988 L 194.281 244.921 194.932 244.309 C 195.603 243.680,195.798 242.587,195.325 242.114 C 195.183 241.972,194.580 240.898,193.985 239.729 C 193.390 238.559,192.780 237.375,192.630 237.098 C 192.480 236.820,191.963 235.798,191.482 234.826 C 190.635 233.117,188.306 228.595,184.683 221.622 C 182.632 217.674,182.524 216.725,184.363 218.801 C 187.704 222.574,194.134 228.292,197.012 230.049 C 197.450 230.317,198.415 230.942,199.157 231.439 C 201.319 232.886,201.914 233.241,203.845 234.236 C 204.850 234.753,206.553 235.630,207.631 236.186 C 208.708 236.741,210.215 237.440,210.978 237.738 C 212.585 238.367,217.758 240.389,219.054 240.895 C 219.539 241.085,220.258 241.245,220.651 241.251 C 221.044 241.257,222.066 241.539,222.922 241.877 C 223.779 242.215,224.934 242.569,225.489 242.664 C 226.044 242.758,227.407 243.094,228.517 243.409 C 231.214 244.175,235.403 244.972,237.718 245.160 C 238.753 245.244,240.256 245.483,241.058 245.691 C 245.729 246.901,269.846 246.900,274.535 245.690 C 275.320 245.487,277.382 245.204,279.117 245.060 C 281.256 244.883,283.368 244.505,285.678 243.887 C 287.552 243.385,289.692 242.870,290.435 242.742 C 291.177 242.614,292.204 242.295,292.718 242.033 C 293.231 241.771,294.100 241.474,294.649 241.374 C 295.809 241.162,298.529 240.172,301.577 238.853 C 302.757 238.343,304.168 237.761,304.712 237.561 C 305.257 237.360,305.995 236.999,306.353 236.758 C 306.710 236.517,307.628 235.993,308.391 235.593 C 309.155 235.193,310.131 234.601,310.560 234.278 C 310.990 233.955,311.424 233.691,311.524 233.691 C 311.790 233.691,314.780 231.557,316.950 229.819 C 319.116 228.084,319.390 228.108,320.038 230.094 C 321.243 233.787,325.321 238.806,329.303 241.496 C 331.341 242.873,335.508 245.047,336.110 245.047 C 336.362 245.047,337.411 245.359,338.442 245.739 C 341.097 246.720,352.560 246.811,354.700 245.868 C 355.394 245.562,356.502 245.195,357.161 245.052 C 363.123 243.761,372.290 235.077,373.759 229.327 C 373.908 228.743,374.261 227.714,374.542 227.040 C 375.729 224.194,375.723 215.165,374.533 212.310 C 374.257 211.647,373.908 210.626,373.759 210.042 C 372.123 203.641,364.720 196.996,355.916 194.025 L 352.681 192.934 346.625 192.938 C 340.980 192.942,340.465 192.981,339.062 193.506 C 336.451 194.483,336.377 194.414,336.711 191.293 C 336.973 188.839,336.738 181.072,336.365 179.863 C 336.227 179.418,336.012 178.204,335.887 177.166 C 335.617 174.936,335.060 172.455,334.245 169.842 C 333.919 168.801,333.529 167.390,333.377 166.706 C 333.100 165.460,329.749 158.456,328.296 156.088 C 324.195 149.403,315.366 140.823,307.256 135.642 C 306.423 135.110,305.003 134.202,304.101 133.625 C 301.590 132.019,300.802 131.551,299.432 130.851 C 298.738 130.497,297.659 129.917,297.035 129.563 C 295.714 128.815,293.310 127.598,290.978 126.497 C 285.527 123.925,284.372 123.407,284.091 123.407 C 283.919 123.407,283.327 123.165,282.775 122.869 C 282.223 122.574,281.203 122.134,280.507 121.892 C 279.267 121.461,275.680 120.079,273.186 119.070 C 272.492 118.790,271.300 118.421,270.536 118.251 C 269.773 118.081,268.870 117.793,268.529 117.610 C 268.189 117.427,266.572 116.845,264.936 116.315 C 263.301 115.786,261.713 115.219,261.409 115.056 C 261.105 114.894,260.223 114.616,259.450 114.441 C 258.123 114.139,252.979 112.169,251.609 111.438 C 251.262 111.253,250.353 110.920,249.590 110.698 C 245.297 109.451,235.227 103.584,232.859 100.950 C 225.357 92.606,230.629 80.108,242.902 77.140 C 243.735 76.938,245.290 76.541,246.357 76.256 C 250.753 75.083,260.060 75.004,264.045 76.106 C 264.770 76.307,266.218 76.694,267.264 76.966 C 271.089 77.963,274.545 80.215,277.269 83.486 C 278.749 85.263,279.228 86.070,280.507 88.938 C 280.749 89.482,281.154 91.278,281.407 92.930 C 281.914 96.237,282.451 97.626,283.407 98.102 C 283.897 98.345,289.711 98.416,309.467 98.419 L 334.897 98.423 335.837 97.561 C 336.752 96.722,336.779 96.647,336.870 94.647 C 337.012 91.525,335.229 81.085,334.119 78.538 C 333.859 77.942,333.572 77.034,333.482 76.519 C 333.173 74.762,330.153 68.327,328.054 64.954 C 323.617 57.821,317.407 51.512,309.905 46.513 C 306.587 44.301,306.032 43.952,305.489 43.735 C 305.211 43.624,304.169 43.050,303.174 42.461 C 302.178 41.871,301.228 41.388,301.063 41.388 C 300.897 41.388,300.236 41.121,299.593 40.795 C 297.001 39.480,290.571 37.093,287.823 36.425 C 286.991 36.223,285.344 35.788,284.164 35.459 C 281.349 34.674,277.710 33.994,270.789 32.959 C 267.777 32.509,257.113 32.308,249.590 32.560 M271.293 33.412 C 272.612 33.644,274.770 33.996,276.088 34.192 C 279.010 34.627,281.728 35.193,283.912 35.821 C 284.814 36.080,286.006 36.368,286.562 36.462 C 287.873 36.682,293.838 38.679,295.618 39.493 C 296.379 39.841,297.111 40.126,297.244 40.126 C 297.533 40.126,303.122 42.843,305.182 43.986 C 316.209 50.100,325.180 59.328,330.379 69.905 C 335.308 79.934,338.089 96.089,335.156 97.658 C 334.081 98.234,284.076 97.993,283.333 97.409 C 282.616 96.845,282.251 95.901,282.016 94.006 C 280.434 81.225,270.514 74.555,253.784 75.024 C 239.130 75.436,228.896 82.411,228.896 91.987 C 228.896 99.400,236.166 106.123,249.590 111.123 C 250.492 111.459,252.593 112.273,254.259 112.932 C 255.924 113.591,257.798 114.291,258.423 114.488 C 259.891 114.952,261.060 115.356,265.363 116.885 C 267.306 117.576,269.634 118.347,270.536 118.600 C 271.438 118.852,273.539 119.596,275.205 120.253 C 276.871 120.910,278.978 121.706,279.888 122.022 C 280.798 122.338,281.989 122.836,282.534 123.128 C 283.079 123.420,283.636 123.659,283.772 123.659 C 284.112 123.659,288.791 125.831,293.628 128.234 C 299.425 131.114,301.805 132.477,306.598 135.660 C 311.396 138.848,314.092 140.910,317.564 144.047 C 326.956 152.532,333.031 163.181,335.017 174.637 C 335.245 175.956,335.615 177.943,335.840 179.054 C 336.147 180.577,336.256 182.715,336.281 187.760 C 336.319 195.429,336.136 194.956,338.742 194.089 C 347.509 191.174,359.739 194.065,367.239 200.827 C 375.123 207.936,377.392 221.219,372.452 231.357 C 370.563 235.233,367.631 238.581,363.687 241.362 C 362.083 242.493,357.470 244.795,356.807 244.795 C 356.554 244.795,355.749 245.024,355.018 245.304 C 349.976 247.237,339.492 246.395,333.612 243.586 C 327.405 240.622,321.871 234.817,320.130 229.446 C 319.630 227.903,319.196 227.620,318.359 228.294 C 317.631 228.880,314.092 231.561,313.060 232.309 C 309.035 235.224,300.144 239.467,294.890 240.978 C 293.918 241.258,292.442 241.708,291.609 241.979 C 288.424 243.014,281.079 244.574,278.306 244.804 C 276.739 244.934,274.322 245.273,272.934 245.556 C 267.820 246.600,247.060 246.509,241.898 245.421 C 240.930 245.217,239.396 244.982,238.491 244.900 C 236.266 244.697,232.039 243.904,229.274 243.170 C 228.025 242.838,226.498 242.486,225.880 242.388 C 225.262 242.290,224.275 242.004,223.687 241.751 C 223.099 241.499,222.003 241.180,221.252 241.041 C 220.501 240.902,218.857 240.381,217.600 239.884 C 216.342 239.387,214.821 238.823,214.218 238.631 C 212.308 238.023,209.189 236.618,205.676 234.785 C 196.645 230.070,191.354 225.933,183.619 217.539 C 181.144 214.855,181.228 215.615,183.997 220.986 C 185.274 223.463,187.705 228.215,189.400 231.546 C 191.095 234.877,193.121 238.833,193.903 240.337 C 195.411 243.236,195.456 243.683,194.301 244.302 C 193.451 244.756,139.483 244.647,138.597 244.189 C 137.477 243.610,137.241 243.217,133.055 234.953 C 130.841 230.580,127.835 224.675,126.376 221.830 C 124.917 218.984,121.902 213.065,119.676 208.676 C 117.450 204.287,115.509 200.482,115.363 200.222 C 115.217 199.961,114.879 199.293,114.612 198.738 C 114.161 197.801,110.712 191.042,110.103 189.905 C 109.955 189.628,109.405 188.549,108.882 187.508 C 104.338 178.465,102.991 176.002,102.433 175.713 C 101.551 175.258,79.274 175.258,78.651 175.713 C 78.242 176.012,78.216 178.068,78.229 209.364 L 78.242 242.697 77.714 243.369 C 76.743 244.603,77.548 244.567,50.712 244.560 C 23.599 244.552,24.471 244.595,24.001 243.248 C 23.644 242.224,23.600 36.695,23.957 35.757 C 24.418 34.545,23.303 34.574,68.870 34.582 C 113.711 34.590,120.415 34.708,124.989 35.563 C 126.483 35.843,128.925 36.193,130.414 36.340 C 131.904 36.488,134.088 36.877,135.268 37.206 C 136.448 37.534,137.981 37.882,138.675 37.980 C 140.035 38.171,146.361 40.127,148.013 40.868 C 148.568 41.117,149.420 41.406,149.905 41.510 C 151.473 41.847,158.202 45.110,161.167 46.972 C 169.373 52.126,175.288 57.782,179.811 64.801 C 181.090 66.786,181.101 66.784,182.778 64.264 C 190.937 52.004,204.330 42.799,221.199 37.858 C 222.032 37.614,223.110 37.243,223.596 37.034 C 224.082 36.825,225.139 36.575,225.944 36.477 C 226.750 36.380,228.169 36.090,229.099 35.833 C 231.505 35.167,235.536 34.399,237.603 34.212 C 238.574 34.124,240.391 33.874,241.640 33.655 C 245.746 32.937,247.582 32.857,258.297 32.923 C 266.876 32.976,269.353 33.069,271.293 33.412 M78.738 78.991 C 78.461 79.268,78.233 79.694,78.233 79.937 C 78.217 125.541,78.243 130.583,78.492 130.832 C 79.105 131.444,113.935 131.179,115.962 130.547 C 116.934 130.244,118.284 129.872,118.963 129.721 C 128.862 127.515,134.850 118.182,134.833 104.984 C 134.826 99.558,134.796 99.216,134.167 97.287 C 133.804 96.177,133.506 95.041,133.503 94.763 C 133.500 94.486,132.933 93.089,132.243 91.660 C 128.546 84.003,121.474 79.629,111.376 78.752 C 105.187 78.215,79.325 78.404,78.738 78.991 M111.963 79.253 C 123.013 80.326,131.628 86.847,133.243 95.361 C 133.367 96.018,133.664 97.061,133.903 97.679 C 134.711 99.772,134.721 109.419,133.918 112.367 C 133.569 113.650,133.212 115.031,133.125 115.436 C 131.631 122.378,125.291 127.860,116.215 130.057 L 113.438 130.729 96.188 130.743 C 86.701 130.751,78.887 130.706,78.824 130.643 C 78.745 130.564,78.662 83.082,78.734 79.424 C 78.746 78.807,105.924 78.667,111.963 79.253 M254.322 85.233 C 255.050 85.284,256.243 85.284,256.972 85.233 C 257.700 85.182,257.104 85.141,255.647 85.141 C 254.189 85.141,253.593 85.182,254.322 85.233 M185.573 125.363 C 185.489 125.606,185.221 126.275,184.976 126.851 C 184.731 127.426,184.451 128.262,184.353 128.708 C 183.988 130.370,181.357 135.386,179.191 138.549 C 173.640 146.656,165.579 153.747,156.025 158.926 C 152.904 160.619,152.465 159.346,163.665 181.073 C 166.151 185.896,167.340 188.259,168.808 191.300 C 170.676 195.168,171.134 193.318,169.720 187.611 C 168.457 182.515,168.425 174.529,169.664 173.820 C 170.667 173.246,220.700 173.367,221.759 173.946 C 222.974 174.610,223.096 175.036,223.466 179.889 C 224.227 189.865,229.583 198.449,236.422 200.650 C 236.932 200.815,237.464 201.033,237.603 201.135 C 241.103 203.716,260.752 205.157,267.256 203.309 C 270.353 202.429,272.521 201.655,273.312 201.145 C 273.659 200.922,274.282 200.573,274.695 200.369 C 275.994 199.731,279.431 196.067,280.332 194.359 C 282.259 190.707,282.432 182.815,280.657 179.484 C 280.383 178.970,279.959 178.103,279.714 177.559 C 278.399 174.628,272.607 170.293,265.741 167.100 C 261.478 165.117,260.039 164.495,258.675 164.043 C 257.912 163.791,255.484 162.891,253.281 162.044 C 251.077 161.198,249.090 160.504,248.864 160.502 C 248.639 160.501,247.858 160.222,247.129 159.883 C 246.400 159.543,245.381 159.186,244.866 159.090 C 244.351 158.993,243.414 158.685,242.785 158.406 C 242.155 158.127,240.391 157.453,238.864 156.908 C 237.338 156.363,235.350 155.652,234.448 155.330 C 233.546 155.007,231.615 154.233,230.158 153.610 C 228.700 152.987,226.883 152.224,226.120 151.913 C 216.839 148.139,206.144 142.375,200.415 138.058 C 198.838 136.871,197.239 135.672,196.861 135.394 C 195.403 134.324,190.155 129.235,188.338 127.129 C 186.423 124.910,185.855 124.547,185.573 125.363 M187.127 126.246 C 188.708 128.171,194.880 134.201,196.972 135.864 C 200.941 139.020,206.533 142.839,207.184 142.839 C 207.290 142.839,207.663 143.064,208.013 143.340 C 209.540 144.541,223.819 151.672,224.697 151.672 C 224.851 151.672,225.546 151.949,226.242 152.289 C 226.938 152.628,228.360 153.256,229.401 153.684 C 230.442 154.113,231.634 154.630,232.050 154.834 C 232.467 155.038,233.432 155.387,234.196 155.609 C 234.959 155.832,235.697 156.102,235.836 156.210 C 236.089 156.407,240.824 158.124,243.659 159.048 C 244.492 159.319,245.685 159.745,246.309 159.994 C 246.934 160.244,248.694 160.872,250.221 161.390 C 251.748 161.908,253.905 162.668,255.016 163.079 C 256.126 163.490,257.546 163.995,258.170 164.201 C 258.795 164.407,259.760 164.788,260.315 165.048 C 260.871 165.308,261.893 165.767,262.587 166.068 C 266.888 167.935,269.077 169.029,271.041 170.293 C 274.931 172.796,275.970 173.583,277.416 175.123 C 279.075 176.890,279.112 176.949,280.421 179.937 L 281.250 181.830 281.256 186.751 L 281.262 191.672 280.288 193.664 C 279.259 195.772,275.514 199.878,274.270 200.265 C 273.951 200.364,273.407 200.637,273.060 200.872 C 269.533 203.262,257.726 204.619,249.830 203.542 C 245.865 203.002,239.258 201.532,238.032 200.918 C 237.518 200.661,236.771 200.371,236.371 200.275 C 235.529 200.072,233.381 198.657,231.501 197.067 C 226.850 193.134,224.101 186.722,223.723 178.927 C 223.411 172.484,226.508 173.123,195.595 173.123 C 168.404 173.123,169.290 173.076,168.678 174.540 C 168.110 175.900,168.585 185.406,169.339 187.765 C 169.975 189.754,170.287 192.303,169.894 192.303 C 169.744 192.303,169.258 191.536,168.814 190.599 C 167.676 188.200,165.641 184.164,162.611 178.297 C 161.177 175.521,159.827 172.852,159.611 172.366 C 159.394 171.880,158.948 170.972,158.620 170.347 C 158.292 169.722,157.637 168.473,157.166 167.571 C 156.694 166.669,156.184 165.703,156.033 165.426 C 153.775 161.286,153.751 160.557,155.839 159.472 C 156.531 159.112,157.836 158.353,158.738 157.785 C 159.640 157.217,160.890 156.438,161.514 156.054 C 171.270 150.058,182.734 136.583,184.731 128.765 C 185.540 125.599,186.106 125.003,187.127 126.246 " stroke="none" fill="#bcbcbc" fill-rule="evenodd"></path><path id="path3" d="M248.644 32.993 C 249.303 33.045,250.382 33.045,251.041 32.993 C 251.700 32.941,251.161 32.899,249.842 32.899 C 248.524 32.899,247.984 32.941,248.644 32.993 M264.669 32.990 C 265.120 33.046,265.858 33.046,266.309 32.990 C 266.760 32.934,266.391 32.888,265.489 32.888 C 264.587 32.888,264.218 32.934,264.669 32.990 M244.858 33.234 C 245.101 33.297,245.498 33.297,245.741 33.234 C 245.984 33.170,245.785 33.118,245.300 33.118 C 244.814 33.118,244.615 33.170,244.858 33.234 M238.297 34.243 C 238.539 34.307,238.937 34.307,239.180 34.243 C 239.423 34.180,239.224 34.128,238.738 34.128 C 238.252 34.128,238.054 34.180,238.297 34.243 M49.673 34.763 C 61.517 34.800,80.823 34.800,92.575 34.763 C 104.328 34.727,94.637 34.697,71.041 34.697 C 47.445 34.697,37.829 34.727,49.673 34.763 M118.553 35.009 C 119.007 35.066,119.688 35.064,120.068 35.007 C 120.447 34.949,120.076 34.903,119.243 34.905 C 118.410 34.906,118.100 34.953,118.553 35.009 M23.847 139.432 C 23.847 196.341,23.876 219.584,23.912 191.084 C 23.947 162.583,23.947 116.022,23.912 87.613 C 23.876 59.205,23.847 82.524,23.847 139.432 M316.467 52.114 C 316.938 52.599,317.380 52.997,317.449 52.997 C 317.519 52.997,317.190 52.599,316.719 52.114 C 316.248 51.628,315.806 51.230,315.737 51.230 C 315.668 51.230,315.996 51.628,316.467 52.114 M193.423 52.303 L 192.681 53.123 193.502 52.382 C 193.953 51.974,194.322 51.605,194.322 51.562 C 194.322 51.367,194.114 51.538,193.423 52.303 M172.361 55.836 C 174.818 58.356,175.142 58.664,175.142 58.481 C 175.142 58.444,173.921 57.223,172.429 55.768 L 169.716 53.123 172.361 55.836 M319.117 54.511 C 319.800 55.205,320.416 55.773,320.486 55.773 C 320.555 55.773,320.053 55.205,319.369 54.511 C 318.686 53.817,318.069 53.249,318.000 53.249 C 317.931 53.249,318.433 53.817,319.117 54.511 M189.015 56.467 L 187.382 58.170 189.085 56.537 C 190.667 55.020,190.904 54.763,190.718 54.763 C 190.680 54.763,189.913 55.530,189.015 56.467 M253.198 74.888 C 254.280 74.936,255.983 74.935,256.983 74.887 C 257.983 74.840,257.098 74.801,255.016 74.801 C 252.934 74.802,252.116 74.841,253.198 74.888 M260.505 75.127 C 260.748 75.190,261.145 75.190,261.388 75.127 C 261.631 75.063,261.432 75.011,260.946 75.011 C 260.461 75.011,260.262 75.063,260.505 75.127 M109.971 78.664 C 110.285 78.725,110.740 78.722,110.981 78.659 C 111.222 78.596,110.965 78.547,110.410 78.549 C 109.855 78.552,109.657 78.604,109.971 78.664 M113.000 78.917 C 113.314 78.977,113.768 78.975,114.009 78.912 C 114.251 78.848,113.994 78.799,113.438 78.802 C 112.883 78.805,112.686 78.856,113.000 78.917 M78.102 105.110 C 78.102 118.574,78.133 124.045,78.170 117.268 C 78.208 110.491,78.208 99.475,78.170 92.788 C 78.133 86.102,78.102 91.647,78.102 105.110 M276.088 81.640 C 276.559 82.126,277.001 82.524,277.071 82.524 C 277.140 82.524,276.812 82.126,276.341 81.640 C 275.870 81.155,275.428 80.757,275.358 80.757 C 275.289 80.757,275.617 81.155,276.088 81.640 M336.210 91.609 C 336.210 92.095,336.262 92.293,336.325 92.050 C 336.389 91.808,336.389 91.410,336.325 91.167 C 336.262 90.924,336.210 91.123,336.210 91.609 M281.951 93.375 C 281.951 93.861,282.003 94.060,282.067 93.817 C 282.130 93.574,282.130 93.177,282.067 92.934 C 282.003 92.691,281.951 92.890,281.951 93.375 M334.890 97.444 C 334.404 97.704,334.192 97.917,334.420 97.918 C 334.648 97.918,335.102 97.695,335.429 97.422 C 336.151 96.820,336.045 96.825,334.890 97.444 M134.842 101.577 C 134.843 102.410,134.890 102.720,134.946 102.267 C 135.002 101.813,135.001 101.132,134.944 100.753 C 134.886 100.373,134.840 100.744,134.842 101.577 M134.844 108.517 C 134.844 109.420,134.890 109.789,134.946 109.338 C 135.002 108.886,135.002 108.148,134.946 107.697 C 134.890 107.246,134.844 107.615,134.844 108.517 M256.404 113.943 C 256.751 114.142,257.148 114.304,257.287 114.304 C 257.426 114.304,257.256 114.142,256.909 113.943 C 256.562 113.745,256.164 113.583,256.025 113.583 C 255.886 113.583,256.057 113.745,256.404 113.943 M285.174 124.416 C 285.659 124.682,286.170 124.900,286.309 124.900 C 286.448 124.900,286.164 124.682,285.678 124.416 C 285.192 124.150,284.681 123.933,284.543 123.933 C 284.404 123.933,284.688 124.150,285.174 124.416 M185.617 124.918 C 185.528 125.063,185.632 125.103,185.864 125.014 C 186.085 124.929,186.515 125.071,186.823 125.332 L 187.382 125.804 186.901 125.237 C 186.391 124.635,185.872 124.506,185.617 124.918 M190.789 129.842 C 191.683 130.744,192.471 131.483,192.541 131.483 C 192.610 131.483,191.935 130.744,191.041 129.842 C 190.147 128.940,189.358 128.202,189.289 128.202 C 189.220 128.202,189.894 128.940,190.789 129.842 M110.985 131.163 C 111.578 131.216,112.487 131.216,113.004 131.161 C 113.520 131.107,113.035 131.064,111.924 131.064 C 110.814 131.065,110.391 131.110,110.985 131.163 M212.492 145.487 C 212.492 145.659,214.037 146.425,214.153 146.310 C 214.208 146.255,213.856 146.021,213.372 145.791 C 212.888 145.560,212.492 145.423,212.492 145.487 M318.991 145.442 C 318.991 145.485,319.360 145.854,319.811 146.262 L 320.631 147.003 319.890 146.183 C 319.199 145.418,318.991 145.247,318.991 145.442 M169.704 149.211 L 168.707 150.284 169.779 149.286 C 170.777 148.359,170.968 148.139,170.777 148.139 C 170.736 148.139,170.253 148.621,169.704 149.211 M220.568 149.527 C 220.915 149.725,221.312 149.887,221.451 149.887 C 221.590 149.887,221.420 149.725,221.073 149.527 C 220.726 149.328,220.328 149.166,220.189 149.166 C 220.050 149.166,220.221 149.328,220.568 149.527 M256.909 163.407 C 257.256 163.605,257.653 163.768,257.792 163.768 C 257.931 163.768,257.760 163.605,257.413 163.407 C 257.066 163.209,256.669 163.046,256.530 163.046 C 256.391 163.046,256.562 163.209,256.909 163.407 M183.407 173.565 C 190.104 173.602,201.063 173.602,207.760 173.565 C 214.457 173.527,208.978 173.497,195.584 173.497 C 182.189 173.497,176.710 173.527,183.407 173.565 M277.098 174.211 C 277.098 174.255,277.467 174.624,277.918 175.032 L 278.738 175.773 277.997 174.953 C 277.306 174.188,277.098 174.016,277.098 174.211 M85.254 175.331 C 88.212 175.371,92.982 175.371,95.853 175.331 C 98.724 175.290,96.303 175.257,90.473 175.257 C 84.644 175.257,82.295 175.291,85.254 175.331 M223.160 177.413 C 223.160 178.038,223.209 178.293,223.270 177.981 C 223.330 177.669,223.330 177.158,223.270 176.845 C 223.209 176.533,223.160 176.789,223.160 177.413 M78.104 209.968 C 78.104 228.082,78.134 235.492,78.170 226.435 C 78.207 217.379,78.207 202.558,78.170 193.502 C 78.134 184.445,78.104 191.855,78.104 209.968 M168.914 181.199 C 168.914 182.101,168.959 182.470,169.015 182.019 C 169.071 181.568,169.071 180.830,169.015 180.379 C 168.959 179.927,168.914 180.297,168.914 181.199 M223.407 181.073 C 223.410 181.628,223.462 181.825,223.522 181.511 C 223.583 181.197,223.580 180.743,223.517 180.502 C 223.454 180.261,223.405 180.517,223.407 181.073 M335.963 181.073 C 335.965 181.628,336.017 181.825,336.078 181.511 C 336.138 181.197,336.136 180.743,336.072 180.502 C 336.009 180.261,335.960 180.517,335.963 181.073 M336.230 185.110 C 336.231 185.943,336.278 186.253,336.334 185.800 C 336.390 185.346,336.389 184.665,336.332 184.286 C 336.274 183.906,336.228 184.278,336.230 185.110 M281.985 186.877 C 281.986 188.265,282.028 188.801,282.079 188.067 C 282.130 187.334,282.130 186.198,282.078 185.544 C 282.026 184.889,281.984 185.489,281.985 186.877 M336.238 189.905 C 336.239 191.016,336.283 191.439,336.337 190.845 C 336.390 190.251,336.389 189.343,336.335 188.826 C 336.281 188.309,336.237 188.795,336.238 189.905 M170.617 192.921 C 170.603 193.500,170.532 193.598,170.297 193.363 C 169.656 192.722,169.649 193.104,170.283 194.073 C 171.135 195.374,171.511 195.032,171.013 193.409 C 170.694 192.370,170.632 192.293,170.617 192.921 M335.932 193.451 C 335.896 194.291,336.283 194.837,336.896 194.809 C 337.166 194.797,337.131 194.730,336.782 194.595 C 336.471 194.474,336.218 194.070,336.122 193.540 L 335.965 192.681 335.932 193.451 M345.047 193.247 C 345.984 193.296,347.517 193.296,348.454 193.247 C 349.391 193.199,348.625 193.159,346.751 193.159 C 344.877 193.159,344.110 193.199,345.047 193.247 M230.410 196.672 C 230.410 196.715,230.779 197.085,231.230 197.492 L 232.050 198.233 231.309 197.413 C 230.618 196.649,230.410 196.477,230.410 196.672 M277.460 198.170 L 276.719 198.991 277.539 198.249 C 278.304 197.558,278.476 197.350,278.281 197.350 C 278.237 197.350,277.868 197.719,277.460 198.170 M367.571 201.388 C 368.255 202.082,368.871 202.650,368.940 202.650 C 369.009 202.650,368.507 202.082,367.823 201.388 C 367.140 200.694,366.524 200.126,366.454 200.126 C 366.385 200.126,366.887 200.694,367.571 201.388 M249.401 204.086 C 249.644 204.149,250.041 204.149,250.284 204.086 C 250.527 204.022,250.328 203.970,249.842 203.970 C 249.356 203.970,249.158 204.022,249.401 204.086 M255.216 204.351 C 256.158 204.400,257.635 204.400,258.496 204.351 C 259.358 204.301,258.587 204.262,256.782 204.262 C 254.978 204.263,254.273 204.303,255.216 204.351 M180.948 214.815 C 180.945 215.593,181.532 216.641,181.701 216.159 C 181.831 215.786,181.928 215.802,182.596 216.302 L 183.344 216.864 182.713 216.257 C 182.366 215.924,181.827 215.366,181.515 215.018 C 181.061 214.510,180.949 214.470,180.948 214.815 M187.382 221.577 C 188.486 222.688,189.446 223.596,189.515 223.596 C 189.584 223.596,188.738 222.688,187.634 221.577 C 186.530 220.467,185.570 219.558,185.501 219.558 C 185.431 219.558,186.278 220.467,187.382 221.577 M374.822 223.344 C 374.822 223.830,374.874 224.028,374.937 223.785 C 375.001 223.543,375.001 223.145,374.937 222.902 C 374.874 222.659,374.822 222.858,374.822 223.344 M317.334 228.959 L 316.593 229.779 317.413 229.038 C 318.178 228.347,318.349 228.139,318.154 228.139 C 318.111 228.139,317.742 228.508,317.334 228.959 M367.814 237.792 L 366.562 239.117 367.886 237.864 C 368.615 237.176,369.211 236.579,369.211 236.539 C 369.211 236.351,368.978 236.561,367.814 237.792 M299.558 239.117 C 299.211 239.315,299.041 239.477,299.180 239.477 C 299.319 239.477,299.716 239.315,300.063 239.117 C 300.410 238.918,300.580 238.756,300.442 238.756 C 300.303 238.756,299.905 238.918,299.558 239.117 M292.240 241.640 C 291.893 241.839,291.722 242.001,291.861 242.001 C 292.000 242.001,292.397 241.839,292.744 241.640 C 293.091 241.442,293.262 241.280,293.123 241.280 C 292.984 241.280,292.587 241.442,292.240 241.640 M74.388 244.721 C 74.702 244.781,75.156 244.779,75.397 244.716 C 75.639 244.653,75.382 244.603,74.826 244.606 C 74.271 244.609,74.074 244.661,74.388 244.721 M191.612 244.724 C 191.996 244.782,192.564 244.780,192.874 244.720 C 193.185 244.660,192.871 244.613,192.177 244.615 C 191.483 244.617,191.229 244.666,191.612 244.724 M278.927 244.717 C 279.170 244.780,279.568 244.780,279.811 244.717 C 280.054 244.653,279.855 244.601,279.369 244.601 C 278.883 244.601,278.685 244.653,278.927 244.717 M269.467 245.983 C 269.781 246.043,270.235 246.041,270.476 245.978 C 270.717 245.915,270.461 245.865,269.905 245.868 C 269.350 245.871,269.153 245.923,269.467 245.983 M253.959 246.246 C 256.293 246.287,260.041 246.287,262.287 246.246 C 264.534 246.204,262.625 246.170,258.044 246.170 C 253.464 246.170,251.626 246.204,253.959 246.246 M344.543 246.244 C 345.618 246.292,347.379 246.292,348.454 246.244 C 349.530 246.197,348.650 246.158,346.498 246.158 C 344.347 246.158,343.467 246.197,344.543 246.244 " stroke="none" fill="#c4c4c4" fill-rule="evenodd"></path><path id="path4" d="M248.454 33.063 C 246.372 33.180,243.703 33.457,242.524 33.678 C 241.344 33.900,239.243 34.192,237.855 34.327 C 235.355 34.572,230.894 35.412,229.713 35.861 C 229.376 35.989,228.061 36.262,226.790 36.467 C 225.519 36.672,223.912 37.055,223.218 37.318 C 222.524 37.581,220.025 38.427,217.666 39.197 C 204.287 43.565,191.964 51.862,185.173 61.073 C 184.713 61.697,183.717 63.117,182.959 64.227 C 180.947 67.178,181.396 67.323,178.170 62.685 C 171.237 52.716,159.533 44.590,145.868 40.258 C 144.826 39.928,143.293 39.419,142.461 39.127 C 141.628 38.835,139.868 38.372,138.549 38.097 C 137.230 37.823,135.331 37.378,134.328 37.109 C 133.325 36.840,131.508 36.544,130.290 36.451 C 129.072 36.358,126.599 35.989,124.795 35.631 L 121.514 34.981 74.069 34.840 C 28.810 34.707,25.057 34.747,24.300 35.375 C 23.680 35.890,23.836 243.054,24.457 243.821 L 24.940 244.416 50.262 244.488 C 77.643 244.564,76.335 244.606,77.311 243.630 L 77.981 242.960 77.981 209.460 C 77.981 178.607,78.014 175.933,78.398 175.614 C 78.739 175.332,80.969 175.268,90.506 175.268 L 102.197 175.268 102.805 175.899 C 103.412 176.529,105.023 179.563,111.018 191.369 C 116.471 202.109,120.387 209.805,124.588 218.044 C 126.818 222.416,130.544 229.741,132.868 234.322 C 137.285 243.028,137.659 243.633,138.982 244.197 C 140.120 244.681,193.104 244.707,194.045 244.223 C 195.287 243.585,195.267 243.260,193.819 240.466 C 193.075 239.030,191.198 235.356,189.648 232.303 C 188.098 229.249,185.771 224.707,184.477 222.208 C 180.125 213.802,180.023 213.436,182.902 216.547 C 192.028 226.405,196.461 229.879,206.600 235.118 C 208.843 236.276,210.832 237.224,211.021 237.224 C 211.209 237.224,211.760 237.434,212.243 237.692 C 212.727 237.949,213.577 238.301,214.132 238.474 C 214.688 238.647,216.278 239.224,217.666 239.756 C 219.054 240.288,220.587 240.795,221.073 240.882 C 221.558 240.968,222.808 241.312,223.849 241.645 C 226.573 242.517,232.858 243.938,236.088 244.413 C 237.615 244.637,240.397 245.070,242.271 245.376 C 247.449 246.219,268.821 246.221,273.438 245.378 C 275.104 245.074,277.706 244.698,279.221 244.543 C 280.736 244.387,283.291 243.918,284.899 243.500 C 286.507 243.082,288.618 242.590,289.590 242.407 C 290.562 242.224,291.924 241.847,292.618 241.569 C 293.312 241.292,294.959 240.723,296.278 240.305 C 301.056 238.790,305.772 236.647,310.158 234.000 C 312.227 232.750,312.623 232.475,315.533 230.265 C 318.999 227.633,319.009 227.626,319.488 227.882 C 319.730 228.012,320.074 228.662,320.252 229.327 C 321.914 235.531,329.879 242.773,337.287 244.815 C 338.397 245.121,339.870 245.525,340.560 245.714 C 342.296 246.189,350.868 246.175,352.934 245.694 C 360.516 243.928,365.847 240.650,369.904 235.261 C 371.287 233.423,373.502 229.441,373.502 228.792 C 373.502 228.607,373.806 227.561,374.178 226.468 C 374.818 224.587,374.854 224.221,374.855 219.685 L 374.856 214.890 373.945 212.042 C 370.774 202.133,362.548 195.303,351.672 193.548 C 348.397 193.020,341.537 193.366,338.838 194.196 C 335.823 195.123,335.870 195.184,336.128 190.716 C 336.530 183.745,335.466 175.293,333.295 168.202 C 330.845 160.203,325.404 151.577,318.967 145.486 C 314.757 141.503,309.728 137.699,303.596 133.861 C 298.900 130.922,292.152 127.437,286.057 124.802 C 284.252 124.022,282.554 123.260,282.282 123.108 C 282.010 122.956,281.045 122.575,280.137 122.261 C 279.229 121.946,276.953 121.095,275.079 120.368 C 273.205 119.641,270.934 118.842,270.032 118.590 C 269.129 118.339,266.631 117.494,264.479 116.711 C 262.328 115.928,259.830 115.074,258.927 114.812 C 258.025 114.551,255.754 113.701,253.880 112.924 C 252.006 112.146,250.019 111.358,249.464 111.173 C 244.165 109.400,235.753 104.523,232.770 101.493 C 227.457 96.095,227.502 87.744,232.873 82.407 C 242.060 73.279,263.721 71.975,274.236 79.916 C 278.888 83.429,281.592 88.406,282.279 94.719 C 282.400 95.837,282.610 96.381,283.154 96.991 L 283.870 97.792 308.872 97.860 C 336.800 97.936,335.310 98.025,336.066 96.224 C 336.756 94.581,335.228 82.856,333.870 79.369 C 333.600 78.675,333.305 77.710,333.215 77.224 C 332.860 75.306,330.011 69.122,327.866 65.615 C 322.804 57.339,316.456 51.146,306.755 45.018 C 304.625 43.673,298.888 40.824,296.909 40.129 C 296.215 39.885,294.795 39.342,293.754 38.923 C 290.861 37.756,288.833 37.122,285.931 36.475 C 284.473 36.151,282.997 35.779,282.650 35.649 C 281.868 35.355,277.295 34.520,271.798 33.667 C 267.099 32.938,255.855 32.647,248.454 33.063 M271.672 34.166 C 277.718 35.116,281.215 35.753,283.407 36.306 C 284.448 36.568,285.868 36.897,286.562 37.038 C 287.707 37.269,292.318 38.841,296.530 40.436 C 308.644 45.023,320.116 54.274,326.902 64.927 C 329.483 68.979,332.283 74.934,332.862 77.604 C 333.012 78.297,333.347 79.375,333.605 80.000 C 333.863 80.625,334.149 81.817,334.241 82.650 C 334.404 84.133,334.508 84.741,335.251 88.580 C 336.118 93.062,335.975 96.328,334.886 96.910 C 334.585 97.071,325.402 97.161,309.209 97.161 L 284.000 97.161 283.439 96.564 C 283.007 96.104,282.825 95.483,282.647 93.851 C 280.944 78.241,262.195 69.878,242.902 76.123 C 227.215 81.201,223.297 95.226,235.087 104.099 C 239.408 107.351,248.497 111.698,257.287 114.717 C 257.981 114.955,259.174 115.369,259.937 115.636 C 260.700 115.903,262.347 116.468,263.596 116.890 C 264.845 117.313,266.380 117.865,267.006 118.116 C 267.632 118.368,268.824 118.743,269.656 118.951 C 270.487 119.158,271.962 119.635,272.934 120.012 C 276.044 121.217,277.946 121.930,279.369 122.425 C 280.132 122.690,281.211 123.127,281.767 123.396 C 282.322 123.664,284.139 124.470,285.804 125.187 C 288.475 126.335,296.086 130.028,298.170 131.187 C 300.619 132.549,305.962 135.792,307.256 136.701 C 308.088 137.287,309.145 138.028,309.605 138.347 C 320.901 146.198,330.802 158.996,332.868 168.414 C 333.015 169.086,333.310 170.051,333.524 170.559 C 334.611 173.146,335.687 182.777,335.602 189.148 L 335.521 195.205 336.223 195.286 C 336.610 195.330,337.632 195.135,338.495 194.852 C 352.323 190.317,369.969 198.799,373.353 211.609 C 373.573 212.442,373.924 213.744,374.132 214.503 C 375.617 219.911,373.918 228.551,370.294 234.018 C 368.362 236.933,362.398 242.271,361.074 242.271 C 360.943 242.271,360.534 242.478,360.165 242.731 C 355.952 245.622,345.409 246.652,338.927 244.806 C 329.906 242.236,321.672 235.099,320.640 228.954 C 320.295 226.900,319.302 226.612,317.660 228.089 C 312.418 232.803,303.473 237.631,295.142 240.245 C 294.170 240.550,292.637 241.068,291.735 241.396 C 290.833 241.725,289.417 242.067,288.589 242.157 C 287.762 242.247,286.399 242.533,285.561 242.791 C 283.454 243.442,279.160 244.214,276.593 244.404 C 275.413 244.491,273.199 244.792,271.672 245.072 C 268.361 245.681,253.377 246.032,248.833 245.607 C 242.631 245.027,234.926 243.834,230.290 242.735 C 228.628 242.341,227.011 242.019,226.697 242.019 C 226.382 242.019,225.528 241.790,224.798 241.510 C 224.067 241.229,222.736 240.828,221.839 240.617 C 220.941 240.407,219.238 239.850,218.053 239.380 C 216.868 238.910,215.445 238.406,214.890 238.260 C 214.334 238.113,213.430 237.764,212.880 237.483 C 212.331 237.202,211.735 236.972,211.556 236.972 C 210.120 236.972,199.341 230.772,194.700 227.277 C 190.718 224.277,181.956 215.527,181.956 214.550 C 181.956 214.410,181.629 214.032,181.230 213.709 C 180.831 213.387,180.373 212.868,180.212 212.555 C 180.051 212.243,179.810 211.987,179.676 211.987 C 179.306 211.987,179.400 213.059,179.819 213.613 C 180.023 213.882,180.189 214.323,180.189 214.592 C 180.189 214.861,180.518 215.662,180.919 216.373 C 181.990 218.269,183.246 220.606,183.568 221.301 C 183.884 221.985,185.006 224.195,188.382 230.789 C 191.265 236.418,192.760 239.358,193.322 240.505 C 193.560 240.991,193.968 241.763,194.228 242.222 C 194.700 243.055,194.700 243.056,194.100 243.550 C 193.147 244.336,139.469 244.194,138.409 243.403 C 137.949 243.060,136.394 240.269,133.628 234.823 C 131.372 230.383,128.250 224.252,126.689 221.199 C 125.128 218.145,122.061 212.126,119.875 207.823 C 115.039 198.308,111.009 190.422,110.460 189.401 C 110.236 188.984,109.431 187.394,108.671 185.868 C 104.271 177.029,103.564 175.785,102.685 175.332 C 101.467 174.704,79.425 174.652,78.221 175.275 L 77.476 175.660 77.476 209.348 L 77.476 243.036 76.656 243.539 C 75.402 244.307,25.613 244.204,24.758 243.431 L 24.227 242.950 24.227 139.537 C 24.227 44.995,24.262 36.090,24.632 35.720 C 25.001 35.351,29.285 35.322,73.275 35.397 L 121.514 35.479 123.912 36.022 C 125.230 36.321,127.729 36.678,129.464 36.816 C 131.199 36.954,133.356 37.293,134.259 37.570 C 135.161 37.847,136.353 38.153,136.909 38.250 C 138.477 38.524,141.502 39.314,143.722 40.029 C 145.617 40.640,146.310 40.868,149.148 41.814 C 152.057 42.783,157.924 45.572,160.379 47.153 C 166.590 51.155,168.497 52.645,172.373 56.522 C 175.256 59.406,179.403 64.673,180.243 66.515 C 180.733 67.591,181.471 67.286,182.580 65.547 C 186.480 59.431,192.512 53.123,197.911 49.517 C 202.774 46.269,203.219 46.009,207.823 43.726 C 213.644 40.841,223.464 37.357,227.264 36.828 C 228.334 36.679,229.906 36.345,230.756 36.085 C 232.273 35.622,235.228 35.141,240.000 34.579 C 241.319 34.424,243.013 34.177,243.766 34.030 C 248.665 33.075,265.240 33.156,271.672 34.166 M78.336 78.568 L 77.603 79.199 77.536 104.954 L 77.469 130.709 78.155 131.159 C 79.764 132.214,114.757 131.846,117.542 130.746 C 118.272 130.457,119.133 130.221,119.456 130.221 C 120.259 130.221,124.990 127.804,126.688 126.527 C 128.560 125.118,130.748 122.660,131.703 120.894 C 132.953 118.584,133.780 116.720,134.008 115.704 C 134.153 115.057,134.421 114.169,134.604 113.731 C 135.617 111.304,135.650 99.891,134.653 96.769 C 134.301 95.666,134.011 94.612,134.010 94.427 C 134.005 93.919,132.548 90.703,131.781 89.508 C 128.165 83.874,124.475 81.268,116.845 78.957 L 114.196 78.155 96.632 78.046 L 79.069 77.938 78.336 78.568 M117.224 79.591 C 125.691 82.025,132.675 88.548,133.659 94.942 C 133.751 95.538,134.061 96.593,134.349 97.287 C 135.105 99.109,135.157 110.305,134.420 112.681 C 134.162 113.514,133.801 114.763,133.617 115.457 C 132.222 120.736,127.954 125.870,122.999 128.231 C 120.386 129.475,118.786 130.004,115.079 130.848 C 112.466 131.443,79.104 131.411,78.443 130.813 C 78.001 130.413,77.981 129.285,77.981 105.105 L 77.981 79.816 78.518 79.133 L 79.056 78.449 96.499 78.548 L 113.943 78.647 117.224 79.591 M184.899 125.489 C 184.578 126.218,184.184 127.339,184.023 127.981 C 183.375 130.572,180.104 136.529,177.225 140.361 C 171.871 147.487,164.593 153.614,155.782 158.413 C 153.220 159.808,152.660 160.974,153.685 162.780 C 153.959 163.264,155.036 165.363,156.078 167.445 C 157.119 169.527,158.080 171.401,158.213 171.609 C 158.346 171.817,158.931 172.953,159.512 174.132 C 160.094 175.312,161.678 178.435,163.031 181.073 C 166.433 187.699,167.396 189.598,168.505 191.871 C 169.938 194.809,170.415 195.672,171.041 196.455 C 171.353 196.846,171.609 197.421,171.609 197.732 C 171.609 198.480,172.170 198.959,172.574 198.556 C 172.976 198.153,172.947 197.221,172.506 196.368 C 172.072 195.528,171.490 193.305,170.849 190.032 C 170.591 188.713,170.195 186.896,169.970 185.994 C 169.306 183.335,169.129 175.286,169.719 174.634 C 170.317 173.973,219.612 173.832,221.179 174.487 C 222.247 174.933,222.460 175.589,222.826 179.558 C 223.292 184.627,223.328 184.843,224.070 187.038 C 227.109 196.029,233.114 201.279,242.650 203.284 C 243.621 203.488,245.041 203.840,245.804 204.066 C 247.634 204.607,262.072 204.885,264.984 204.435 C 284.187 201.470,289.293 181.167,273.438 170.819 C 269.517 168.259,268.934 167.909,268.262 167.707 C 267.916 167.603,267.407 167.376,267.129 167.202 C 266.242 166.645,259.857 163.785,259.502 163.785 C 259.314 163.785,258.695 163.548,258.127 163.259 C 257.559 162.969,256.627 162.581,256.055 162.397 C 255.483 162.212,254.107 161.702,252.997 161.263 C 251.886 160.824,250.240 160.255,249.338 159.998 C 247.093 159.358,244.283 158.375,242.020 157.437 C 240.979 157.005,239.446 156.452,238.613 156.207 C 236.965 155.721,235.018 154.970,230.158 152.942 C 228.423 152.219,226.549 151.458,225.994 151.252 C 225.438 151.046,224.303 150.556,223.470 150.164 C 222.637 149.771,220.934 148.982,219.685 148.411 C 216.114 146.777,209.675 143.445,207.950 142.338 C 207.325 141.937,206.078 141.184,205.178 140.665 C 204.278 140.145,202.247 138.747,200.664 137.557 C 199.081 136.368,197.319 135.043,196.748 134.613 C 194.907 133.229,189.953 128.326,188.265 126.217 C 186.222 123.666,185.747 123.563,184.899 125.489 M187.711 126.246 C 191.373 130.845,199.666 137.859,205.894 141.625 C 209.686 143.919,219.604 149.148,220.161 149.148 C 220.239 149.148,221.128 149.554,222.138 150.051 C 223.148 150.547,224.656 151.219,225.489 151.544 C 227.867 152.471,232.272 154.316,232.604 154.524 C 232.883 154.699,234.491 155.283,237.603 156.340 C 238.297 156.576,240.153 157.268,241.728 157.880 C 243.303 158.491,244.779 158.992,245.009 158.993 C 245.238 158.994,246.006 159.266,246.716 159.596 C 247.426 159.927,248.391 160.274,248.861 160.368 C 249.331 160.462,250.852 160.977,252.240 161.514 C 253.628 162.050,255.445 162.733,256.278 163.030 C 257.110 163.327,258.360 163.777,259.054 164.029 C 260.754 164.648,268.434 168.149,269.672 168.869 C 277.537 173.448,280.695 177.122,281.759 182.930 C 283.647 193.239,278.717 200.320,267.508 203.401 C 263.029 204.632,250.691 204.632,245.288 203.400 C 240.484 202.305,238.838 201.850,237.603 201.277 C 236.909 200.955,236.057 200.606,235.710 200.501 C 229.656 198.681,224.042 189.425,223.338 180.106 C 222.794 172.887,226.551 173.768,195.973 173.686 C 169.229 173.615,169.536 173.602,169.051 174.822 C 168.659 175.810,169.177 185.422,169.714 187.129 C 169.933 187.823,170.279 189.426,170.483 190.692 C 170.687 191.957,170.982 193.357,171.137 193.802 C 171.314 194.310,171.330 194.701,171.181 194.850 C 170.799 195.233,169.632 193.200,165.206 184.436 C 161.668 177.431,156.952 168.214,155.609 165.678 C 155.389 165.262,155.207 164.806,155.207 164.664 C 155.206 164.523,154.927 163.998,154.587 163.498 C 153.217 161.482,153.520 160.098,155.557 159.066 C 156.825 158.424,158.781 157.251,161.514 155.494 C 172.173 148.643,181.527 137.380,184.600 127.697 C 185.741 124.100,185.932 124.012,187.711 126.246 " stroke="none" fill="#cccccc" fill-rule="evenodd"></path></g></svg>